<svg width="41" height="40" viewBox="0 0 41 40" fill="none" xmlns="http://www.w3.org/2000/svg">
<g clip-path="url(#clip0_436_344)">
<path d="M40.6666 20C40.6666 8.9543 31.7123 0 20.6666 0C9.62093 0 0.666626 8.9543 0.666626 20C0.666626 31.0457 9.62093 40 20.6666 40C31.7123 40 40.6666 31.0457 40.6666 20Z" fill="#222222"/>
<g clip-path="url(#clip1_436_344)">
<mask id="mask0_436_344" style="mask-type:luminance" maskUnits="userSpaceOnUse" x="11" y="10" width="20" height="21">
<path d="M11 10.3334H31V30.3334H11V10.3334Z" fill="white"/>
</mask>
<g mask="url(#mask0_436_344)">
<path d="M18.1875 15.8021C18.4031 15.8021 18.5781 15.9771 18.5781 16.1927C18.5781 16.4084 18.4031 16.5834 18.1875 16.5834C17.9719 16.5834 17.7969 16.4084 17.7969 16.1927C17.7969 15.9771 17.9719 15.8021 18.1875 15.8021Z" fill="white"/>
<path d="M15.1797 12.7943C15.1797 13.0101 15.0048 13.1849 14.7891 13.1849C14.5734 13.1849 14.3984 13.0101 14.3984 12.7943C14.3984 12.5786 14.5734 12.4037 14.7891 12.4037C15.0048 12.4037 15.1797 12.5786 15.1797 12.7943Z" fill="white"/>
<path d="M16.167 11.7041C17.2163 11.0815 18.4414 10.724 19.75 10.724C23.6332 10.724 26.7812 13.872 26.7812 17.7552C26.7812 18.2556 26.98 18.7353 27.3336 19.0888L29.0516 20.8849C29.4621 21.2955 29.2969 21.9947 28.7461 22.1783L27.5625 22.5599L27.9812 23.5146C28.1793 23.9107 28.0089 24.392 27.6059 24.5752L27.2695 24.7279C27.3316 24.79 27.4008 24.8592 27.4008 24.8592C27.7059 25.1642 27.7059 25.6588 27.4008 25.9638L27.1719 26.1927C27.1719 27.0556 26.4722 27.7552 25.6094 27.7552H24.0469C22.9683 27.7552 22.0937 28.8642 22.0937 29.9427H15.8437C16.625 24.474 12.7188 23.224 12.7188 17.7552C12.7188 16.4467 13.0762 15.2216 13.6988 14.1723" stroke="white" stroke-width="0.78125" stroke-miterlimit="10" stroke-linecap="round" stroke-linejoin="round"/>
</g>
</g>
</g>
<defs>
<clipPath id="clip0_436_344">
<rect width="40" height="40" fill="white" transform="translate(0.666626)"/>
</clipPath>
<clipPath id="clip1_436_344">
<rect width="20" height="20" fill="white" transform="translate(11 10.3334)"/>
</clipPath>
</defs>
</svg>
