<svg width="41" height="40" viewBox="0 0 41 40" fill="none" xmlns="http://www.w3.org/2000/svg">
<g clip-path="url(#clip0_414_4268)">
<path d="M40.3334 20C40.3334 8.9543 31.3791 0 20.3334 0C9.28768 0 0.333374 8.9543 0.333374 20C0.333374 31.0457 9.28768 40 20.3334 40C31.3791 40 40.3334 31.0457 40.3334 20Z" fill="#222222"/>
<path d="M14.7636 29.3749C14.7105 29.3749 14.6574 29.3624 14.6105 29.3343C14.4605 29.2499 14.4074 29.0593 14.4917 28.9093L15.1417 27.7624C15.6792 26.8093 15.7011 25.6624 15.2011 24.6906L13.373 21.1437C12.8292 20.1218 12.5417 18.9687 12.5417 17.8124C12.5417 15.8312 13.3886 13.9156 14.8605 12.5593C14.9855 12.4437 15.1855 12.4499 15.3011 12.5781C15.4167 12.7062 15.4105 12.9031 15.2824 13.0187C13.9167 14.2749 13.1636 15.9781 13.1636 17.8093C13.1636 18.8624 13.4261 19.9124 13.923 20.8499L15.7542 24.3999C16.3511 25.5593 16.323 26.9281 15.6824 28.0656L15.0324 29.2124C14.9761 29.3124 14.8699 29.3718 14.7605 29.3718L14.7636 29.3749Z" fill="white"/>
<path d="M22.4011 29.375C22.2292 29.375 22.0886 29.2344 22.0886 29.0625V27.5C22.0886 27.1562 22.373 26.875 22.7199 26.875H23.873C24.1074 26.875 24.3261 26.7937 24.4886 26.6469C24.6417 26.5094 24.7949 26.3469 24.9542 26.1531C25.0636 26.0187 25.2605 26 25.3949 26.1094C25.5292 26.2187 25.548 26.4156 25.4386 26.55C25.2574 26.7719 25.0855 26.9531 24.9074 27.1125C24.6292 27.3625 24.2636 27.5031 23.873 27.5031H22.7199L22.7136 29.0656C22.7136 29.2375 22.573 29.3781 22.4011 29.3781V29.375Z" fill="white"/>
<path d="M25.8824 25.5813C25.8355 25.5813 25.7855 25.5719 25.7418 25.5469C25.5886 25.4688 25.5261 25.2812 25.6043 25.125C26.3886 23.5844 26.5449 21.8625 26.5449 21.8469C26.5574 21.6844 26.6949 21.5594 26.8574 21.5594H28.1605L26.7793 19.5969C26.5605 19.2844 26.4636 18.9031 26.5043 18.5188C26.5293 18.2969 26.5418 18.0594 26.5418 17.8094C26.5418 14.1906 23.5418 11.2469 19.8543 11.2469C18.5668 11.2469 17.3199 11.6063 16.2386 12.2875C16.0949 12.3813 15.9011 12.3375 15.8074 12.1906C15.7168 12.0438 15.7605 11.8531 15.9043 11.7594C17.0824 11.0156 18.448 10.625 19.8511 10.625C23.8824 10.625 27.1636 13.85 27.1636 17.8125C27.1636 18.0875 27.148 18.35 27.1199 18.5938C27.0949 18.8219 27.1511 19.0531 27.2824 19.2406L28.6699 21.2063C28.8043 21.3969 28.8199 21.6437 28.7105 21.85C28.6011 22.0594 28.3886 22.1875 28.1511 22.1875H27.1261C27.048 22.7656 26.8043 24.1281 26.1511 25.4094C26.0949 25.5188 25.9855 25.5813 25.873 25.5813H25.8824Z" fill="white"/>
<path d="M19.7292 18.75C19.673 18.75 19.6167 18.7344 19.5667 18.7031C19.498 18.6594 17.8542 17.6406 17.8542 15.7812C17.8542 13.9219 19.498 12.9 19.5667 12.8594C19.6667 12.8 19.7917 12.8 19.8917 12.8594C19.9605 12.9031 21.6042 13.9219 21.6042 15.7812C21.6042 17.6406 19.9605 18.6625 19.8917 18.7031C19.8417 18.7344 19.7855 18.75 19.7292 18.75ZM19.7292 13.5062C19.3574 13.7906 18.4792 14.5875 18.4792 15.7812C18.4792 16.975 19.3574 17.7719 19.7292 18.0562C20.1011 17.7719 20.9792 16.975 20.9792 15.7812C20.9792 14.5875 20.1011 13.7906 19.7292 13.5062Z" fill="white"/>
<path d="M18.9637 18.8281C18.2793 18.8281 17.3043 18.6656 16.5262 17.8875C15.2106 16.5688 15.6512 14.6875 15.6699 14.6063C15.6981 14.4938 15.7856 14.4031 15.8981 14.3781C15.9543 14.3656 17.2387 14.0594 18.4356 14.6906C18.5887 14.7719 18.6481 14.9594 18.5668 15.1125C18.4856 15.2656 18.2981 15.325 18.1449 15.2438C17.4043 14.8531 16.6043 14.9031 16.2418 14.9531C16.1793 15.4156 16.1199 16.6031 16.9637 17.4469C18.0293 18.5094 19.6387 18.1406 19.6543 18.1344C19.8231 18.0938 19.9918 18.1969 20.0324 18.3656C20.0731 18.5344 19.9699 18.7031 19.8043 18.7438C19.7731 18.7531 19.4387 18.8313 18.9637 18.8313V18.8281Z" fill="white"/>
<path d="M17.073 20.3124C15.2136 20.3124 14.1917 18.6687 14.1511 18.5999C14.0917 18.4999 14.0917 18.3749 14.1511 18.2749C14.1792 18.2281 14.8761 17.0999 16.1667 16.6999C16.3323 16.6468 16.5073 16.7406 16.5573 16.9062C16.6073 17.0718 16.5167 17.2468 16.3511 17.2968C15.5605 17.5437 15.023 18.1437 14.8011 18.4343C15.0855 18.8062 15.8823 19.6843 17.0761 19.6843C18.5886 19.6843 19.4573 18.2874 19.4667 18.2718C19.5573 18.1249 19.748 18.0781 19.8948 18.1687C20.0417 18.2593 20.0886 18.4499 19.998 18.5968C19.9542 18.6656 18.9355 20.3093 17.073 20.3093V20.3124Z" fill="white"/>
<path d="M22.3855 20.3124C20.5261 20.3124 19.5042 18.6687 19.4636 18.5999C19.373 18.4531 19.4198 18.2593 19.5667 18.1718C19.7136 18.0812 19.9073 18.1281 19.9948 18.2749C20.0042 18.2874 20.8792 19.6874 22.3855 19.6874C23.5855 19.6874 24.3792 18.8093 24.6605 18.4374C24.4386 18.1468 23.9011 17.5437 23.1073 17.2968C22.9417 17.2468 22.8511 17.0718 22.9011 16.9062C22.9511 16.7406 23.1261 16.6468 23.2917 16.6999C24.5823 17.0999 25.2792 18.2249 25.3073 18.2749C25.3667 18.3749 25.3667 18.4999 25.3073 18.5999C25.2636 18.6687 24.2448 20.3124 22.3855 20.3124Z" fill="white"/>
<path d="M20.4948 18.8281C20.0198 18.8281 19.6855 18.75 19.6542 18.7406C19.4855 18.7 19.3823 18.5313 19.4261 18.3625C19.4667 18.1938 19.6386 18.0906 19.8042 18.1344C19.8198 18.1375 21.4292 18.5094 22.4948 17.4438C23.3386 16.6 23.2792 15.4125 23.2167 14.95C22.8542 14.9 22.0511 14.8531 21.3136 15.2406C21.1605 15.3219 20.973 15.2625 20.8917 15.1094C20.8105 14.9563 20.8698 14.7688 21.023 14.6875C22.2198 14.0594 23.5073 14.3625 23.5605 14.375C23.673 14.4031 23.7605 14.4906 23.7886 14.6031C23.8073 14.6813 24.2511 16.5625 22.9355 17.8813C22.1573 18.6594 21.1792 18.8219 20.4948 18.8219V18.8281Z" fill="white"/>
</g>
<defs>
<clipPath id="clip0_414_4268">
<rect width="40" height="40" fill="white" transform="translate(0.333374)"/>
</clipPath>
</defs>
</svg>
