<svg width="41" height="40" viewBox="0 0 41 40" fill="none" xmlns="http://www.w3.org/2000/svg">
<g clip-path="url(#clip0_30_38)">
<path d="M40.6666 20C40.6666 8.9543 31.7123 0 20.6666 0C9.62093 0 0.666626 8.9543 0.666626 20C0.666626 31.0457 9.62093 40 20.6666 40C31.7123 40 40.6666 31.0457 40.6666 20Z" fill="#222222"/>
<g clip-path="url(#clip1_30_38)">
<path d="M15.2638 28.0846C15.691 28.3666 16.2028 28.5308 16.753 28.5308C16.8486 28.5308 16.9431 28.5257 17.0362 28.516C17.3701 29.22 18.0872 29.7071 18.9182 29.7071C20.068 29.7071 21.0001 28.775 21.0001 27.6251" stroke="white" stroke-width="0.585938" stroke-miterlimit="10" stroke-linecap="round" stroke-linejoin="round"/>
<path d="M21.0001 11.9585C21.0001 11.0387 20.2544 10.293 19.3345 10.293C18.5886 10.293 17.9573 10.7833 17.7452 11.4593C17.4705 11.3257 17.1621 11.2507 16.8361 11.2507C15.6863 11.2507 14.7542 12.1828 14.7542 13.3326C14.7542 13.487 14.7715 13.6372 14.8034 13.782C13.8288 13.9555 13.0886 14.8065 13.0886 15.8309C13.0886 16.0305 13.1173 16.2234 13.1698 16.4061C12.6051 16.6727 12.2142 17.247 12.2142 17.9129C12.2142 18.2146 12.2949 18.4974 12.4352 18.7415C12.0145 19.1887 11.7562 19.7904 11.7562 20.4528C11.7562 21.3465 12.2258 22.1302 12.9314 22.5717C12.8186 22.828 12.7556 23.1112 12.7556 23.4092C12.7556 24.2948 13.3088 25.0508 14.0883 25.3516C14.0613 25.5052 14.0464 25.6629 14.0464 25.8242C14.0464 26.2778 14.1579 26.7053 14.3551 27.0807" stroke="white" stroke-width="0.585938" stroke-miterlimit="10" stroke-linecap="round" stroke-linejoin="round"/>
<path d="M26.9194 12.2126C27.1261 12.536 27.246 12.9203 27.246 13.3325C27.246 13.4869 27.2287 13.6371 27.1968 13.7819C28.1714 13.9554 28.9115 14.8064 28.9115 15.8308C28.9115 16.0305 28.8829 16.2233 28.8304 16.406C29.3951 16.6726 29.7859 17.2469 29.7859 17.9128C29.7859 18.2146 29.7053 18.4973 29.5649 18.7414C29.9857 19.1886 30.244 19.7903 30.244 20.4527C30.244 21.3464 29.7743 22.1301 29.0688 22.5716C29.1815 22.828 29.2446 23.1111 29.2446 23.4091C29.2446 24.2947 28.6914 25.0507 27.9118 25.3516C27.9389 25.5051 27.9538 25.6628 27.9538 25.8241C27.9538 27.3189 26.742 28.5307 25.2473 28.5307C25.1516 28.5307 25.0571 28.5255 24.964 28.5158C24.6302 29.2199 23.9131 29.7069 23.0821 29.7069C21.9323 29.7069 21.0001 28.7748 21.0001 27.625" stroke="white" stroke-width="0.585938" stroke-miterlimit="10" stroke-linecap="round" stroke-linejoin="round"/>
<path d="M21.0001 11.9585C21.0001 11.0387 21.7458 10.293 22.6657 10.293C23.4116 10.293 24.0429 10.7833 24.255 11.4593C24.5297 11.3257 24.8381 11.2507 25.164 11.2507C25.41 11.2507 25.646 11.2933 25.865 11.3716" stroke="white" stroke-width="0.585938" stroke-miterlimit="10" stroke-linecap="round" stroke-linejoin="round"/>
<path d="M27.7635 17.9688C28.4723 17.9688 29.113 18.2648 29.565 18.7415" stroke="white" stroke-width="0.585938" stroke-miterlimit="10" stroke-linecap="round" stroke-linejoin="round"/>
<path d="M27.9119 25.3517C27.7059 25.4229 27.4804 25.4492 27.2502 25.4492C26.743 25.4492 26.2795 25.2615 25.9257 24.9517" stroke="white" stroke-width="0.585938" stroke-miterlimit="10" stroke-linecap="round" stroke-linejoin="round"/>
<path d="M28.4878 21.8514C28.7234 22.0355 28.9415 22.2781 29.0688 22.5718" stroke="white" stroke-width="0.585938" stroke-miterlimit="10" stroke-linecap="round" stroke-linejoin="round"/>
<path d="M23.4617 12.2002C23.6608 11.8954 23.9269 11.6226 24.255 11.4592" stroke="white" stroke-width="0.585938" stroke-miterlimit="10" stroke-linecap="round" stroke-linejoin="round"/>
<path d="M25.0071 26.8931C25.0959 27.1238 25.1446 27.3746 25.1446 27.6367C25.1446 27.9488 25.0756 28.2448 24.9519 28.5102" stroke="white" stroke-width="0.585938" stroke-miterlimit="10" stroke-linecap="round" stroke-linejoin="round"/>
<path d="M28.5784 21.3672C28.5784 21.7912 28.3533 22.1625 28.016 22.3683" stroke="white" stroke-width="0.585938" stroke-miterlimit="10" stroke-linecap="round" stroke-linejoin="round"/>
<path d="M27.1968 13.7819C27.0618 13.7551 26.9243 13.7305 26.7815 13.7305C26.3836 13.7305 26.0112 13.8396 25.6926 14.0296" stroke="white" stroke-width="0.585938" stroke-miterlimit="10" stroke-linecap="round" stroke-linejoin="round"/>
<path d="M14.2353 17.9688C13.5265 17.9688 12.8872 18.2648 12.4352 18.7415" stroke="white" stroke-width="0.585938" stroke-miterlimit="10" stroke-linecap="round" stroke-linejoin="round"/>
<path d="M14.087 25.3517C14.2931 25.4229 14.5185 25.4492 14.7487 25.4492C15.256 25.4492 15.7194 25.2615 16.0733 24.9517" stroke="white" stroke-width="0.585938" stroke-miterlimit="10" stroke-linecap="round" stroke-linejoin="round"/>
<path d="M13.5111 21.8514C13.2755 22.0355 13.0574 22.2781 12.9301 22.5718" stroke="white" stroke-width="0.585938" stroke-miterlimit="10" stroke-linecap="round" stroke-linejoin="round"/>
<path d="M18.5373 12.2002C18.3381 11.8954 18.072 11.6226 17.7439 11.4592" stroke="white" stroke-width="0.585938" stroke-miterlimit="10" stroke-linecap="round" stroke-linejoin="round"/>
<path d="M16.9919 26.8931C16.9031 27.1238 16.8544 27.3746 16.8544 27.6367C16.8544 27.9488 16.9234 28.2448 17.0471 28.5102" stroke="white" stroke-width="0.585938" stroke-miterlimit="10" stroke-linecap="round" stroke-linejoin="round"/>
<path d="M13.4207 21.3672C13.4207 21.7912 13.6458 22.1625 13.9831 22.3683" stroke="white" stroke-width="0.585938" stroke-miterlimit="10" stroke-linecap="round" stroke-linejoin="round"/>
<path d="M14.8021 13.7819C14.9371 13.7551 15.0746 13.7305 15.2175 13.7305C15.6154 13.7305 15.9877 13.8396 16.3063 14.0296" stroke="white" stroke-width="0.585938" stroke-miterlimit="10" stroke-linecap="round" stroke-linejoin="round"/>
<path d="M21.0001 11.9585V12.7734" stroke="white" stroke-width="0.585938" stroke-miterlimit="10" stroke-linecap="round" stroke-linejoin="round"/>
<path d="M21.0001 26.8359V27.6251" stroke="white" stroke-width="0.585938" stroke-miterlimit="10" stroke-linecap="round" stroke-linejoin="round"/>
<path d="M20.6641 14C21.2556 14.2896 22.1364 14.8093 22.9741 15.7038C23.2669 16.0164 23.942 16.7488 24.3611 17.7571C25.0542 19.4243 25.1149 22.0083 23.5496 23.8124C22.6846 24.8093 20.7035 26.2822 19.0751 25.4675C18.1087 24.9841 17.5372 23.8304 17.5866 22.7607C17.6676 21.0044 19.4172 19.5752 20.8099 19.7879C21.8108 19.9406 22.3972 20.9062 22.7539 21.4933C24.0126 23.5655 23.5816 25.8869 23.3626 26.7812" stroke="white" stroke-width="0.585938" stroke-miterlimit="10" stroke-linecap="round" stroke-linejoin="round"/>
<path d="M16.8316 20.6687C16.6926 21.4581 16.9491 22.4854 17.6639 23.0876C18.6121 23.8863 19.9177 23.5651 20.2674 23.479C21.4422 23.1899 22.4448 22.3031 22.885 21.2052C23.6995 19.1737 22.5029 16.6323 20.9196 16.0181C18.7119 15.1617 16.043 18.1651 15.4725 17.5546C15.057 17.11 16.0506 15.066 16.954 15.1019C18.1775 15.1506 17.9803 18.9649 19.9624 19.6717C21.8006 20.3272 25.0472 18.1437 24.9669 16.0478C24.9405 15.3577 24.5503 14.4584 23.8656 14.269C22.5512 13.9055 20.2383 16.0219 19.9378 18.4685C19.6388 20.9026 21.4619 22.6394 21.6481 22.8111C22.0781 23.2078 22.6747 23.758 23.5496 23.8123C24.5379 23.8737 25.588 23.2843 26.1927 22.4091" stroke="white" stroke-width="0.585938" stroke-miterlimit="10" stroke-linecap="round" stroke-linejoin="round"/>
<path d="M26.6856 21.148C26.8877 19.4664 25.3065 18.2248 24.3611 17.7571C22.051 16.6141 18.7609 17.7282 17.4124 19.4451" stroke="white" stroke-width="0.585938" stroke-miterlimit="10" stroke-linecap="round" stroke-linejoin="round"/>
</g>
</g>
<defs>
<clipPath id="clip0_30_38">
<rect width="40" height="40" fill="white" transform="translate(0.666626)"/>
</clipPath>
<clipPath id="clip1_30_38">
<rect width="20" height="20" fill="white" transform="translate(11 10)"/>
</clipPath>
</defs>
</svg>
