<svg width="41" height="40" viewBox="0 0 41 40" fill="none" xmlns="http://www.w3.org/2000/svg">
<g clip-path="url(#clip0_30_50)">
<path d="M40.6666 20C40.6666 8.9543 31.7123 0 20.6666 0C9.62093 0 0.666626 8.9543 0.666626 20C0.666626 31.0457 9.62093 40 20.6666 40C31.7123 40 40.6666 31.0457 40.6666 20Z" fill="#222222"/>
<g clip-path="url(#clip1_30_50)">
<path d="M24.3604 14.8344L23.8104 14.5406C23.7039 14.6929 23.56 14.8152 23.3925 14.8957C23.225 14.9761 23.0396 15.0121 22.8542 15C22.6687 15.0121 22.4833 14.9761 22.3158 14.8957C22.1483 14.8152 22.0044 14.6929 21.8979 14.5406L21.3479 14.8344C21.506 15.0882 21.7289 15.2953 21.9936 15.4343C22.2584 15.5733 22.5555 15.6391 22.8542 15.625C23.1528 15.6391 23.4499 15.5733 23.7147 15.4343C23.9794 15.2953 24.2023 15.0882 24.3604 14.8344Z" fill="white"/>
<path d="M26.9167 15.625C27.2153 15.6391 27.5124 15.5733 27.7772 15.4343C28.0419 15.2953 28.2648 15.0882 28.4229 14.8344L27.8729 14.5406C27.7581 14.684 27.6126 14.7997 27.4471 14.8792C27.2816 14.9587 27.1003 15 26.9167 15C26.733 15 26.5517 14.9587 26.3862 14.8792C26.2207 14.7997 26.0752 14.684 25.9604 14.5406L25.4104 14.8344C25.5685 15.0882 25.7914 15.2953 26.0561 15.4343C26.3209 15.5733 26.618 15.6391 26.9167 15.625Z" fill="white"/>
<path d="M15.6854 22.3344L16.2354 22.0407C16.0773 21.7868 15.8544 21.5798 15.5897 21.4408C15.3249 21.3018 15.0278 21.236 14.7292 21.25C14.4305 21.236 14.1334 21.3018 13.8687 21.4408C13.6039 21.5798 13.381 21.7868 13.2229 22.0407L13.7729 22.3344C13.8794 22.1821 14.0233 22.0598 14.1908 21.9794C14.3583 21.8989 14.5437 21.863 14.7292 21.875C14.9146 21.863 15.1 21.8989 15.2675 21.9794C15.435 22.0598 15.5789 22.1821 15.6854 22.3344Z" fill="white"/>
<path d="M18.7917 21.875C18.9771 21.863 19.1625 21.8989 19.33 21.9794C19.4975 22.0598 19.6414 22.1821 19.7479 22.3344L20.2979 22.0407C20.1398 21.7868 19.9169 21.5798 19.6522 21.4408C19.3874 21.3018 19.0903 21.236 18.7917 21.25C18.493 21.236 18.1959 21.3018 17.9312 21.4408C17.6664 21.5798 17.4435 21.7868 17.2854 22.0407L17.8354 22.3344C17.9419 22.1821 18.0858 22.0598 18.2533 21.9794C18.4208 21.8989 18.6062 21.863 18.7917 21.875Z" fill="white"/>
<path d="M18.1666 25H15.0416C14.9587 25 14.8793 25.0329 14.8207 25.0915C14.7621 25.1501 14.7291 25.2296 14.7291 25.3125C14.7291 25.8098 14.9267 26.2867 15.2783 26.6383C15.6299 26.99 16.1068 27.1875 16.6041 27.1875C17.1014 27.1875 17.5783 26.99 17.93 26.6383C18.2816 26.2867 18.4791 25.8098 18.4791 25.3125C18.4791 25.2296 18.4462 25.1501 18.3876 25.0915C18.329 25.0329 18.2495 25 18.1666 25ZM16.6041 26.5625C16.3272 26.5623 16.0581 26.4701 15.8392 26.3004C15.6203 26.1307 15.464 25.8932 15.3948 25.625H17.8135C17.7443 25.8932 17.5879 26.1307 17.369 26.3004C17.1501 26.4701 16.8811 26.5623 16.6041 26.5625Z" fill="white"/>
<path d="M29.7291 10.3125C29.591 10.3129 29.457 10.3591 29.3479 10.4437C28.0196 11.4538 26.3978 12.0024 24.7291 12.0063C23.0604 12.0024 21.4387 11.4538 20.1104 10.4437C20.018 10.3726 19.9075 10.3288 19.7915 10.3171C19.6755 10.3055 19.5585 10.3265 19.4538 10.3779C19.3491 10.4293 19.2609 10.5089 19.1991 10.6078C19.1373 10.7067 19.1044 10.8209 19.1041 10.9375V15.625C19.1054 16.5232 19.2489 17.4154 19.5291 18.2687C18.2948 18.779 16.9481 18.9563 15.6238 18.783C14.2994 18.6097 13.0438 18.0919 11.9823 17.2812C11.8899 17.2102 11.7794 17.1664 11.6635 17.1548C11.5475 17.1432 11.4306 17.1643 11.326 17.2156C11.2219 17.2674 11.1342 17.3471 11.073 17.446C11.0117 17.5448 10.9792 17.6587 10.9791 17.775V22.4625C10.9822 24.5043 11.7097 26.4788 13.0323 28.0344C13.4723 28.5522 14.0197 28.9681 14.6364 29.2534C15.2532 29.5386 15.9246 29.6864 16.6041 29.6864C17.2837 29.6864 17.9551 29.5386 18.5718 29.2534C19.1886 28.9681 19.736 28.5522 20.176 28.0344C21.5013 26.4755 22.2291 24.4961 22.2291 22.45V22.1375C23.1845 22.7384 24.3246 22.9744 25.4401 22.8022C26.5555 22.63 27.5713 22.0611 28.301 21.2C29.6242 19.6436 30.3518 17.6679 30.3541 15.625V10.9375C30.3541 10.7717 30.2883 10.6128 30.1711 10.4956C30.0539 10.3783 29.8949 10.3125 29.7291 10.3125ZM21.6041 22.45C21.6042 24.3481 20.9297 26.1845 19.701 27.6312C19.3196 28.0804 18.8451 28.4413 18.3103 28.6888C17.7756 28.9363 17.1934 29.0644 16.6041 29.0644C16.0149 29.0644 15.4327 28.9363 14.8979 28.6888C14.3631 28.4413 13.8886 28.0804 13.5073 27.6312C12.2785 26.1845 11.604 24.3481 11.6041 22.45V17.7625C13.0404 18.8588 14.7972 19.4527 16.6041 19.4527C18.411 19.4527 20.1678 18.8588 21.6041 17.7625V22.45ZM29.7291 15.625C29.7293 17.5222 29.0548 19.3576 27.826 20.8031C27.1455 21.6004 26.1831 22.1038 25.14 22.2081C24.097 22.3123 23.054 22.0094 22.2291 21.3625V17.775C22.2291 17.6587 22.1966 17.5448 22.1353 17.446C22.074 17.3471 21.9864 17.2674 21.8823 17.2156C21.7776 17.1643 21.6607 17.1432 21.5448 17.1548C21.4288 17.1664 21.3184 17.2102 21.226 17.2812C20.8713 17.5501 20.4938 17.7874 20.0979 17.9906C19.8561 17.2253 19.7318 16.4276 19.7291 15.625V10.9375C21.1658 12.0334 22.9221 12.6284 24.7291 12.6312C26.5361 12.6284 28.2924 12.0334 29.7291 10.9375V15.625Z" fill="white"/>
<path d="M24.7291 17.8125C24.2318 17.8125 23.7549 18.01 23.4033 18.3617C23.0517 18.7133 22.8541 19.1902 22.8541 19.6875C22.8541 19.7704 22.887 19.8499 22.9457 19.9085C23.0043 19.9671 23.0837 20 23.1666 20H26.2916C26.3745 20 26.454 19.9671 26.5126 19.9085C26.5712 19.8499 26.6041 19.7704 26.6041 19.6875C26.6041 19.1902 26.4066 18.7133 26.055 18.3617C25.7033 18.01 25.2264 17.8125 24.7291 17.8125ZM23.5198 19.375C23.5897 19.1075 23.7463 18.8707 23.9651 18.7017C24.184 18.5328 24.4526 18.4411 24.7291 18.4411C25.0056 18.4411 25.2743 18.5328 25.4931 18.7017C25.712 18.8707 25.8686 19.1075 25.9385 19.375H23.5198Z" fill="white"/>
</g>
</g>
<defs>
<clipPath id="clip0_30_50">
<rect width="40" height="40" fill="white" transform="translate(0.666626)"/>
</clipPath>
<clipPath id="clip1_30_50">
<rect width="20" height="20" fill="white" transform="translate(10.6666 10)"/>
</clipPath>
</defs>
</svg>
