<svg width="40" height="40" viewBox="0 0 40 40" fill="none" xmlns="http://www.w3.org/2000/svg">
<g clip-path="url(#clip0_30_31)">
<path d="M40 20C40 8.9543 31.0457 0 20 0C8.9543 0 0 8.9543 0 20C0 31.0457 8.9543 40 20 40C31.0457 40 40 31.0457 40 20Z" fill="#222222"/>
<g clip-path="url(#clip1_30_31)">
<mask id="mask0_30_31" style="mask-type:luminance" maskUnits="userSpaceOnUse" x="10" y="10" width="21" height="21">
<path d="M10.3334 10.3334H30.3334V30.3334H10.3334V10.3334Z" fill="white"/>
</mask>
<g mask="url(#mask0_30_31)">
<path d="M20.6459 15.8021C20.8615 15.8021 21.0365 15.9771 21.0365 16.1927C21.0365 16.4084 20.8615 16.5834 20.6459 16.5834C20.4302 16.5834 20.2552 16.4084 20.2552 16.1927C20.2552 15.9771 20.4302 15.8021 20.6459 15.8021Z" fill="white"/>
<path d="M17.5209 15.8021C17.7365 15.8021 17.9115 15.9771 17.9115 16.1927C17.9115 16.4084 17.7365 16.5834 17.5209 16.5834C17.3052 16.5834 17.1302 16.4084 17.1302 16.1927C17.1302 15.9771 17.3052 15.8021 17.5209 15.8021Z" fill="white"/>
<path d="M22.9896 17.7552C22.9896 19.9127 21.2408 21.6615 19.0834 21.6615C16.926 21.6615 15.1771 19.9127 15.1771 17.7552C15.1771 15.5978 16.926 13.849 19.0834 13.849C21.2408 13.849 22.9896 15.5978 22.9896 17.7552Z" stroke="white" stroke-width="0.78125" stroke-miterlimit="10" stroke-linecap="round" stroke-linejoin="round"/>
<path d="M17.5209 19.3177C17.5209 18.4549 18.2205 17.7552 19.0834 17.7552C19.9463 17.7552 20.6459 18.4549 20.6459 19.3177" stroke="white" stroke-width="0.78125" stroke-miterlimit="10" stroke-linecap="round" stroke-linejoin="round"/>
<path d="M14.5131 12.7943C14.5131 13.0101 14.3381 13.1849 14.1224 13.1849C13.9067 13.1849 13.7318 13.0101 13.7318 12.7943C13.7318 12.5786 13.9067 12.4037 14.1224 12.4037C14.3381 12.4037 14.5131 12.5786 14.5131 12.7943Z" fill="white"/>
<path d="M15.5004 11.7041C16.5497 11.0815 17.7748 10.724 19.0834 10.724C22.9666 10.724 26.1146 13.872 26.1146 17.7552C26.1146 18.2556 26.3134 18.7353 26.6669 19.0888L28.3849 20.8849C28.7955 21.2955 28.6302 21.9947 28.0794 22.1783L26.8959 22.5599L27.3146 23.5146C27.5127 23.9107 27.3423 24.392 26.9392 24.5752L26.6029 24.7279C26.665 24.79 26.7342 24.8592 26.7342 24.8592C27.0392 25.1642 27.0392 25.6588 26.7342 25.9638L26.5052 26.1927C26.5052 27.0556 25.8056 27.7552 24.9427 27.7552H23.3802C22.3017 27.7552 21.4271 28.8642 21.4271 29.9427H15.1771C15.9584 24.474 12.0521 23.224 12.0521 17.7552C12.0521 16.4467 12.4096 15.2216 13.0322 14.1723" stroke="white" stroke-width="0.78125" stroke-miterlimit="10" stroke-linecap="round" stroke-linejoin="round"/>
</g>
</g>
</g>
<defs>
<clipPath id="clip0_30_31">
<rect width="40" height="40" fill="white"/>
</clipPath>
<clipPath id="clip1_30_31">
<rect width="20" height="20" fill="white" transform="translate(10.3334 10.3334)"/>
</clipPath>
</defs>
</svg>
