<svg width="40" height="40" viewBox="0 0 40 40" fill="none" xmlns="http://www.w3.org/2000/svg">
<g clip-path="url(#clip0_64_192)">
<g clip-path="url(#clip1_64_192)">
<path d="M40 20C40 8.9543 31.0457 0 20 0C8.9543 0 0 8.9543 0 20C0 31.0457 8.9543 40 20 40C31.0457 40 40 31.0457 40 20Z" fill="#222222"/>
<g clip-path="url(#clip2_64_192)">
<path fill-rule="evenodd" clip-rule="evenodd" d="M26.298 26.9018L26.7511 26.9056C26.7522 26.9056 26.7534 26.9056 26.7545 26.9056C27.1672 26.9136 27.4929 27.2466 27.4929 27.6593V27.6624C27.4929 27.6624 27.4837 28.6061 27.4837 28.6057C27.4829 29.0143 27.139 29.3509 26.7305 29.3441C26.7305 29.3441 21.8232 29.3024 21.8239 29.3024C21.409 29.3019 21.0804 28.9603 21.0804 28.5533C21.0804 28.5523 21.0804 28.5512 21.0804 28.5502C21.0804 28.5502 21.0897 27.6065 21.0897 27.6069C21.0905 27.2002 21.4319 26.8639 21.8388 26.8639H21.8414L22.205 26.867L22.2013 24.3991V24.3986C22.2013 23.649 22.3247 22.9443 22.8838 22.4426C23.4234 21.9535 24.4073 21.2193 25.1658 20.3236C25.1748 20.3131 25.1845 20.303 25.1949 20.2937C25.6574 19.8755 26.3541 19.8608 26.798 20.3037C26.8536 20.3586 26.9028 20.416 26.9453 20.4755C26.9691 20.3662 26.9812 20.2524 26.9813 20.1332L26.9674 16.7389V16.7387C26.963 15.4987 27.3818 14.9153 27.8185 14.7007C28.1974 14.5145 28.6263 14.5741 28.962 14.7802C29.3016 14.9886 29.5352 15.3438 29.5447 15.7096L29.7253 21.9578C29.7253 21.9583 29.7254 21.9588 29.7254 21.9593C29.7414 22.6219 29.5022 23.1994 29.0373 23.6696C29.0369 23.6701 29.0363 23.6706 29.0359 23.6711L26.298 26.4045V26.9018ZM22.8325 26.8724L25.6705 26.8964V26.2745C25.6705 26.1912 25.7036 26.1113 25.7625 26.0524L28.5917 23.2279C28.9323 22.8831 29.1097 22.4607 29.0981 21.9751L28.9175 15.7277C28.9175 15.7274 28.9175 15.7271 28.9175 15.7268C28.9131 15.5598 28.7885 15.4099 28.6338 15.315C28.1868 15.0406 27.5898 15.3036 27.5948 16.7365L27.6087 20.1314V20.1327C27.6087 20.6798 27.4286 21.1474 27.08 21.5765C27.0797 21.5769 27.0794 21.5772 27.0791 21.5775C27.0791 21.5775 26.8476 21.86 26.8475 21.8601C26.8452 21.8629 26.8427 21.8658 26.8403 21.8685C26.8402 21.8687 26.8401 21.8687 26.84 21.8689C26.3911 22.3786 25.9098 22.8092 25.4094 23.3096C25.2869 23.4321 25.0881 23.4321 24.9657 23.3096C24.8433 23.1872 24.8433 22.9884 24.9657 22.866C25.4534 22.3782 25.9234 21.9589 26.3614 21.463C26.5494 21.2094 26.5549 20.945 26.3569 20.7499C26.3563 20.7493 26.3558 20.7488 26.3552 20.7483C26.155 20.5481 25.843 20.5653 25.6296 20.7469C24.8528 21.6585 23.8549 22.4091 23.3047 22.908C23.3043 22.9084 23.3038 22.9088 23.3034 22.9092C22.8812 23.2876 22.8287 23.8329 22.8287 24.3984L22.8325 26.8724ZM21.838 27.4914L21.8364 27.4914C21.7723 27.4927 21.7171 27.5441 21.7171 27.6084C21.7171 27.6094 21.7171 27.6105 21.7171 27.6115C21.7171 27.6115 21.7078 28.5542 21.7079 28.5557C21.7091 28.6198 21.7593 28.6749 21.8249 28.6749H21.8276L26.7372 28.7166C26.7384 28.7167 26.7396 28.7167 26.7407 28.7167C26.8032 28.7179 26.8562 28.6667 26.8562 28.6042C26.8562 28.6032 26.8562 28.6022 26.8562 28.6012C26.8562 28.6012 26.8655 27.6584 26.8654 27.6568C26.8641 27.5894 26.8111 27.5349 26.7435 27.533L21.838 27.4914ZM22.6586 27.9743C22.7281 28.1549 22.6401 28.3634 22.4594 28.4375C22.2741 28.507 22.0657 28.419 21.9963 28.2383C21.9221 28.0531 22.0101 27.8493 22.1954 27.7751C22.3761 27.701 22.5845 27.7891 22.6586 27.9743ZM13.6974 26.9018V26.4044L10.9639 23.6709C10.4932 23.2003 10.2585 22.6225 10.2746 21.9593C10.2746 21.9589 10.2746 21.9585 10.2746 21.9581L10.4506 15.7098C10.4506 15.7095 10.4506 15.7092 10.4506 15.7088C10.4621 15.3427 10.6966 14.9881 11.0366 14.78C11.373 14.5741 11.8021 14.5146 12.1811 14.7007C12.6181 14.9153 13.0369 15.4987 13.0325 16.7387V16.7389L13.0186 20.134V20.1358C13.0174 20.2549 13.0292 20.3686 13.0529 20.4778C13.0955 20.4179 13.1449 20.3601 13.2007 20.3049C13.6387 19.862 14.3422 19.8753 14.8051 20.2937C14.8156 20.3033 14.8255 20.3135 14.8347 20.3244C15.5884 21.2197 16.5721 21.9535 17.1153 22.4419C17.6751 22.9436 17.7986 23.6487 17.7986 24.3986V24.3991L17.7949 26.867L18.1585 26.8639H18.1611C18.5668 26.8639 18.9022 27.1966 18.9102 27.6022C18.9102 27.6033 18.9102 27.6043 18.9102 27.6053L18.9195 28.5502V28.5533C18.9195 28.9601 18.5833 29.3015 18.1767 29.3024C18.1767 29.3024 13.2694 29.3441 13.2696 29.344C12.8552 29.3511 12.5196 29.0171 12.5117 28.6104C12.5116 28.6089 12.5116 28.6073 12.5116 28.6058C12.5116 28.6058 12.507 27.6628 12.507 27.664C12.4998 27.2494 12.8338 26.9136 13.2407 26.9057C13.2418 26.9056 13.243 26.9056 13.2442 26.9056L13.6974 26.9018ZM17.1674 26.8724L17.1712 24.3984C17.1712 23.8329 17.1187 23.2876 16.6965 22.9092L16.6962 22.9089C16.1411 22.4097 15.1427 21.6587 14.3699 20.7465C14.1569 20.5656 13.8431 20.547 13.6463 20.7467C13.6452 20.7477 13.6441 20.7488 13.643 20.7499C13.445 20.945 13.4505 21.2094 13.6385 21.463C14.0768 21.9592 14.5471 22.3789 15.0306 22.867C15.1525 22.99 15.1516 23.1888 15.0285 23.3107C14.9055 23.4325 14.7067 23.4316 14.5849 23.3086C14.0895 22.8085 13.6085 22.3782 13.1598 21.8688C13.1598 21.8687 13.1597 21.8686 13.1596 21.8685C13.1578 21.8665 13.1561 21.8645 13.1543 21.8624C13.1543 21.8624 12.9181 21.5799 12.9181 21.5799C12.9167 21.5782 12.9152 21.5764 12.9138 21.5747C12.5706 21.1456 12.3861 20.6778 12.3912 20.1308L12.4051 16.7365C12.4078 15.9574 12.248 15.5148 11.9882 15.316C11.7917 15.1657 11.5485 15.2024 11.3642 15.3152C11.2086 15.4104 11.0831 15.5607 11.0778 15.7282L10.9018 21.9749C10.8902 22.4603 11.063 22.8828 11.4075 23.2272L14.2329 26.0526C14.2918 26.1114 14.3248 26.1913 14.3248 26.2745V26.8965L17.1674 26.8724ZM18.1619 27.4914C18.1619 27.4914 13.2519 27.533 13.2505 27.5331C13.1865 27.5356 13.1331 27.5877 13.1344 27.6533C13.1344 27.6548 13.1344 27.6563 13.1344 27.6578C13.1344 27.6578 13.139 28.5997 13.1391 28.6006C13.1416 28.6647 13.1938 28.718 13.2593 28.7167C13.2605 28.7167 13.2616 28.7167 13.2627 28.7166L18.1724 28.6749H18.175C18.2398 28.6749 18.2916 28.6189 18.2921 28.5542C18.2921 28.5542 18.2829 27.6136 18.2828 27.6121C18.2803 27.5466 18.2275 27.4918 18.1619 27.4914ZM18.0037 27.9743C18.0778 28.1549 17.9851 28.3634 17.8045 28.4375C17.6192 28.507 17.4154 28.419 17.3413 28.2383C17.2672 28.0531 17.3598 27.8493 17.5405 27.7751C17.7258 27.701 17.9296 27.7891 18.0037 27.9743ZM20.1236 10.8642L24.9493 12.9328C25.0647 12.9822 25.1394 13.0956 25.1394 13.2211V17.1233C25.1394 19.9905 23.0527 22.4682 20.2298 22.9603L20.054 22.991C20.0182 22.9973 19.9817 22.9973 19.9459 22.991L19.7702 22.9603C16.9472 22.4682 14.8605 19.9905 14.8605 17.1233V13.2211C14.8605 13.0956 14.9352 12.9822 15.0506 12.9328L19.8763 10.8642C19.9553 10.8304 20.0446 10.8304 20.1236 10.8642ZM20 11.4939L15.4879 13.428V17.1233C15.4879 19.6869 17.3538 21.9022 19.878 22.3422L20 22.3635L20.122 22.3422C22.6461 21.9022 24.512 19.6869 24.512 17.1233V13.428L20 11.4939ZM18.7982 15.7156V14.1131C18.7982 13.9398 18.9387 13.7994 19.1119 13.7994H20.888C21.0612 13.7994 21.2017 13.9398 21.2017 14.1131V15.7156H22.8041C22.9774 15.7156 23.1179 15.856 23.1179 16.0293V17.8053C23.1179 17.9785 22.9774 18.119 22.8041 18.119H21.2017V19.7215C21.2017 19.8947 21.0612 20.0352 20.888 20.0352H19.1119C18.9387 20.0352 18.7982 19.8947 18.7982 19.7215V18.119H17.1958C17.0225 18.119 16.882 17.9785 16.882 17.8053V16.0293C16.882 15.856 17.0225 15.7156 17.1958 15.7156H18.7982ZM19.1119 16.343H17.5095V17.4916H19.1119C19.2852 17.4916 19.4257 17.632 19.4257 17.8053V19.4078H20.5742V17.8053C20.5742 17.632 20.7147 17.4916 20.888 17.4916H22.4904V16.343H20.888C20.7147 16.343 20.5742 16.2025 20.5742 16.0293V14.4268H19.4257V16.0293C19.4257 16.2025 19.2852 16.343 19.1119 16.343ZM13.4908 11.7642C13.4908 11.9373 13.3502 12.0779 13.177 12.0779C13.0039 12.0779 12.8633 11.9373 12.8633 11.7642V10.9695C12.8633 10.7963 13.0039 10.6558 13.177 10.6558C13.3502 10.6558 13.4908 10.7963 13.4908 10.9695V11.7642ZM12.5005 12.127C12.6736 12.127 12.8142 12.2676 12.8142 12.4407C12.8142 12.6139 12.6736 12.7545 12.5005 12.7545H11.7058C11.5326 12.7545 11.3921 12.6139 11.3921 12.4407C11.3921 12.2676 11.5326 12.127 11.7058 12.127H12.5005ZM12.8633 13.1173C12.8633 12.9442 13.0039 12.8036 13.177 12.8036C13.3502 12.8036 13.4908 12.9442 13.4908 13.1173V13.912C13.4908 14.0851 13.3502 14.2257 13.177 14.2257C13.0039 14.2257 12.8633 14.0851 12.8633 13.912V13.1173ZM13.8536 12.7545C13.6805 12.7545 13.5399 12.6139 13.5399 12.4407C13.5399 12.2676 13.6805 12.127 13.8536 12.127H14.6483C14.8214 12.127 14.962 12.2676 14.962 12.4407C14.962 12.6139 14.8214 12.7545 14.6483 12.7545H13.8536ZM27.2086 11.7642C27.2086 11.9373 27.068 12.0779 26.8949 12.0779C26.7217 12.0779 26.5811 11.9373 26.5811 11.7642V10.9695C26.5811 10.7963 26.7217 10.6558 26.8949 10.6558C27.068 10.6558 27.2086 10.7963 27.2086 10.9695V11.7642ZM26.2183 12.127C26.3914 12.127 26.532 12.2676 26.532 12.4407C26.532 12.6139 26.3914 12.7545 26.2183 12.7545H25.4236C25.2504 12.7545 25.1099 12.6139 25.1099 12.4407C25.1099 12.2676 25.2504 12.127 25.4236 12.127H26.2183ZM26.5811 13.1173C26.5811 12.9442 26.7217 12.8036 26.8949 12.8036C27.068 12.8036 27.2086 12.9442 27.2086 13.1173V13.912C27.2086 14.0851 27.068 14.2257 26.8949 14.2257C26.7217 14.2257 26.5811 14.0851 26.5811 13.912V13.1173ZM27.5714 12.7545C27.3983 12.7545 27.2577 12.6139 27.2577 12.4407C27.2577 12.2676 27.3983 12.127 27.5714 12.127H28.3661C28.5392 12.127 28.6798 12.2676 28.6798 12.4407C28.6798 12.6139 28.5392 12.7545 28.3661 12.7545H27.5714Z" fill="white"/>
</g>
</g>
</g>
<defs>
<clipPath id="clip0_64_192">
<rect width="40" height="40" fill="white"/>
</clipPath>
<clipPath id="clip1_64_192">
<rect width="40" height="40" fill="white"/>
</clipPath>
<clipPath id="clip2_64_192">
<rect width="20" height="20" fill="white" transform="translate(10 10)"/>
</clipPath>
</defs>
</svg>
