<svg width="40" height="40" viewBox="0 0 40 40" fill="none" xmlns="http://www.w3.org/2000/svg">
<g clip-path="url(#clip0_414_4285)">
<path d="M40 20C40 8.9543 31.0457 0 20 0C8.9543 0 0 8.9543 0 20C0 31.0457 8.9543 40 20 40C31.0457 40 40 31.0457 40 20Z" fill="#222222"/>
<g clip-path="url(#clip1_414_4285)">
<path d="M24.7221 24.6722C24.6998 24.4082 24.7767 24.1454 24.9379 23.9351C27.4992 20.5992 28.2967 16.8908 27.0711 14.0152C26.0786 11.6861 23.5329 10.0738 20.7368 10.0033C18.5173 9.9427 16.378 10.7235 14.8634 12.1337C13.6072 13.3032 12.4288 15.4411 12.8099 17.3713C12.8471 17.5409 12.8938 17.7083 12.9497 17.8727C13.0751 18.2655 13.1936 18.6364 13.0279 18.9174C13.0257 18.9211 13.0257 18.921 11.9896 20.7329C11.7931 20.9838 11.6909 21.2957 11.7009 21.6142C11.754 22.317 12.3978 22.4617 12.7825 22.5481C12.8277 22.5583 12.8722 22.5682 12.9152 22.5787C12.9564 22.5876 12.9967 22.6001 13.0358 22.6158C13.0475 22.7934 13.0252 22.9717 12.9702 23.141C12.9393 23.2336 12.8016 23.7063 13.126 23.9155C13.1337 23.9209 13.1419 23.9256 13.1503 23.9296C13.2342 23.9776 13.2557 24.0664 13.2143 24.194C13.1672 24.2909 13.1419 24.3969 13.1401 24.5046C13.1384 24.6123 13.1604 24.7191 13.2044 24.8175C13.2375 24.8745 13.2824 24.9238 13.336 24.9621C13.3897 25.0004 13.4509 25.0268 13.5155 25.0396C13.5493 25.059 13.6072 25.1013 13.5966 25.1582C13.3599 25.9464 13.3982 26.9547 14.2133 27.4332C14.8636 27.8148 15.6552 27.7349 16.3537 27.6644C16.5608 27.6435 16.7564 27.6238 16.9381 27.6166C16.9485 27.6163 16.9589 27.6154 16.9692 27.6139C17.1559 27.5821 17.3471 27.5907 17.5302 27.6389C17.596 27.7332 18.268 28.7226 18.1855 29.6602C18.1782 29.7428 18.2041 29.8248 18.2574 29.8883C18.3106 29.9518 18.387 29.9916 18.4695 29.9988C18.4788 29.9995 18.4881 30 18.4973 30C18.5754 29.9999 18.6507 29.9706 18.7083 29.9178C18.7658 29.8651 18.8016 29.7926 18.8084 29.7148C18.9154 28.499 18.0678 27.315 18.0374 27.2733C17.7967 26.9182 17.1729 26.9564 16.8985 26.9929C16.7024 27.0011 16.5024 27.0212 16.2909 27.0426C15.6583 27.1062 15.004 27.1726 14.53 26.8943C13.8776 26.5113 14.1391 25.5235 14.1982 25.3294C14.1997 25.3243 14.2012 25.3192 14.2024 25.314C14.2407 25.1461 14.2193 24.9701 14.1418 24.8164C14.0644 24.6626 13.9357 24.5407 13.778 24.4715C13.7818 24.4591 13.7863 24.4468 13.7914 24.4348C13.7953 24.4262 13.7988 24.4174 13.8018 24.4085C13.8722 24.2413 13.8849 24.0553 13.838 23.8801C13.7911 23.7048 13.6871 23.5501 13.5426 23.4404C13.5469 23.4049 13.5543 23.3698 13.5645 23.3355C13.6493 23.0762 13.6804 22.8023 13.6559 22.5305C13.6116 22.1057 13.2136 22.0084 13.0638 21.9717C13.0171 21.9603 12.9687 21.9493 12.9196 21.9383C12.4797 21.8394 12.3402 21.7754 12.3244 21.5672C12.3267 21.3938 12.3889 21.2265 12.5005 21.0938C12.5087 21.0829 12.5162 21.0716 12.5229 21.0597C12.5229 21.0597 13.5573 19.2511 13.5654 19.237C13.8744 18.7127 13.6921 18.1415 13.5455 17.6826C13.497 17.5408 13.4562 17.3965 13.4235 17.2503C13.0887 15.5545 14.1561 13.6464 15.2897 12.5911C16.6856 11.2916 18.6648 10.5804 20.721 10.628C23.2767 10.6925 25.5974 12.1521 26.4958 14.2603C27.6317 16.9255 26.8639 20.4001 24.4417 23.5545C24.186 23.8878 24.0638 24.3045 24.0989 24.7232C24.1921 26.0486 24.4996 27.3502 25.0093 28.5773C25.0422 28.6532 25.1039 28.713 25.1807 28.7436C25.2576 28.7741 25.3435 28.773 25.4195 28.7404C25.4956 28.7077 25.5556 28.6463 25.5864 28.5695C25.6172 28.4927 25.6164 28.4069 25.584 28.3307C25.1012 27.1657 24.8102 25.9302 24.7221 24.6722Z" fill="white"/>
<path d="M18.1946 14.4105L18.6617 13.95C18.6915 13.9207 18.7151 13.8856 18.7311 13.847C18.7471 13.8083 18.7552 13.7668 18.7548 13.725C18.7545 13.6831 18.7457 13.6418 18.7291 13.6034C18.7124 13.565 18.6882 13.5303 18.6579 13.5014L17.6986 12.5867C17.6689 12.5584 17.6339 12.5361 17.5956 12.5213C17.5573 12.5065 17.5165 12.4994 17.4755 12.5003C17.4344 12.5013 17.394 12.5103 17.3564 12.5269C17.3189 12.5435 17.285 12.5673 17.2566 12.597C17.2283 12.6267 17.2061 12.6617 17.1912 12.7C17.1764 12.7383 17.1693 12.7791 17.1703 12.8201C17.1712 12.8612 17.1802 12.9016 17.1968 12.9392C17.2134 12.9767 17.2372 13.0106 17.2669 13.039L17.9931 13.7312L17.5187 14.1989C17.4883 14.2289 17.4644 14.2647 17.4484 14.3042C17.4324 14.3438 17.4246 14.3862 17.4257 14.4288C17.4267 14.4715 17.4364 14.5135 17.4543 14.5522C17.4722 14.591 17.4978 14.6256 17.5296 14.6541L18.5248 15.5455C18.5554 15.5729 18.591 15.5941 18.6298 15.6078C18.6685 15.6215 18.7096 15.6274 18.7506 15.6252C18.7916 15.623 18.8318 15.6127 18.8688 15.595C18.9059 15.5772 18.9391 15.5523 18.9665 15.5218C18.9939 15.4912 19.0151 15.4555 19.0287 15.4167C19.0423 15.378 19.0482 15.3369 19.0459 15.2959C19.0437 15.2549 19.0334 15.2147 19.0156 15.1777C18.9978 15.1406 18.9729 15.1075 18.9422 15.0801L18.1946 14.4105Z" fill="white"/>
<path d="M21.9403 15.5214C21.9957 15.5831 22.0733 15.6203 22.1561 15.6248C22.2389 15.6293 22.3201 15.6008 22.3819 15.5455L23.3771 14.6541C23.4089 14.6256 23.4345 14.591 23.4524 14.5522C23.4703 14.5135 23.48 14.4715 23.481 14.4288C23.482 14.3862 23.4743 14.3438 23.4583 14.3042C23.4423 14.2647 23.4184 14.2289 23.388 14.1989L22.9136 13.7312L23.6397 13.039C23.6694 13.0106 23.6933 12.9767 23.7098 12.9392C23.7264 12.9016 23.7355 12.8612 23.7364 12.8201C23.7374 12.7791 23.7303 12.7383 23.7154 12.7C23.7006 12.6617 23.6784 12.6267 23.6501 12.597C23.6217 12.5673 23.5878 12.5435 23.5503 12.5269C23.5127 12.5103 23.4723 12.5013 23.4312 12.5003C23.3902 12.4994 23.3494 12.5065 23.3111 12.5213C23.2728 12.5361 23.2378 12.5584 23.2081 12.5867L22.2487 13.5014C22.2184 13.5303 22.1942 13.565 22.1776 13.6034C22.161 13.6418 22.1522 13.6831 22.1519 13.725C22.1515 13.7668 22.1596 13.8083 22.1756 13.847C22.1916 13.8856 22.2152 13.9207 22.245 13.95L22.712 14.4105L21.9644 15.0801C21.9339 15.1075 21.909 15.1406 21.8912 15.1776C21.8735 15.2146 21.8632 15.2547 21.8609 15.2957C21.8587 15.3367 21.8646 15.3777 21.8782 15.4164C21.8918 15.4552 21.9129 15.4908 21.9403 15.5214Z" fill="white"/>
<path d="M21.0022 12.6042L20.1294 13.5775C20.0777 13.6353 20.0492 13.7101 20.0496 13.7877C20.05 13.8652 20.0792 13.9398 20.1315 13.997L20.4581 14.354L19.7566 15.0985C19.7284 15.1284 19.7065 15.1635 19.6919 15.2019C19.6774 15.2403 19.6705 15.2812 19.6718 15.3222C19.673 15.3633 19.6823 15.4036 19.6992 15.4411C19.716 15.4785 19.7401 15.5123 19.77 15.5404C19.7999 15.5685 19.835 15.5905 19.8734 15.605C19.9118 15.6196 19.9527 15.6264 19.9937 15.6252C20.0347 15.6239 20.0751 15.6146 20.1126 15.5978C20.15 15.5809 20.1837 15.5569 20.2119 15.527L21.1122 14.5715C21.1663 14.5141 21.1967 14.4384 21.1973 14.3595C21.1978 14.2807 21.1686 14.2046 21.1154 14.1464L20.784 13.784L21.4678 13.0214C21.5229 12.9596 21.5513 12.8785 21.5466 12.7958C21.542 12.7132 21.5047 12.6357 21.4431 12.5805C21.3814 12.5253 21.3004 12.4967 21.2177 12.5012C21.1351 12.5056 21.0575 12.5427 21.0022 12.6042Z" fill="white"/>
<path d="M18.5248 16.4863L17.5296 17.3777C17.4978 17.4061 17.4722 17.4408 17.4543 17.4795C17.4364 17.5183 17.4267 17.5603 17.4257 17.6029C17.4246 17.6456 17.4324 17.688 17.4484 17.7275C17.4644 17.767 17.4883 17.8029 17.5187 17.8328L17.9931 18.3005L17.2669 18.9928C17.207 19.05 17.1722 19.1287 17.1703 19.2116C17.1683 19.2945 17.1994 19.3748 17.2566 19.4347C17.3139 19.4947 17.3926 19.5295 17.4755 19.5314C17.5583 19.5334 17.6386 19.5023 17.6986 19.445L18.6579 18.5303C18.6882 18.5014 18.7124 18.4668 18.7291 18.4284C18.7457 18.39 18.7545 18.3486 18.7548 18.3068C18.7552 18.2649 18.7471 18.2235 18.7311 18.1848C18.7151 18.1461 18.6915 18.1111 18.6617 18.0817L18.1946 17.6212L18.9422 16.9517C18.9729 16.9243 18.9978 16.8911 19.0156 16.8541C19.0333 16.817 19.0437 16.7769 19.0459 16.7359C19.0482 16.6948 19.0423 16.6538 19.0287 16.615C19.0151 16.5763 18.9939 16.5406 18.9665 16.51C18.9391 16.4794 18.9059 16.4545 18.8688 16.4368C18.8318 16.419 18.7916 16.4088 18.7506 16.4066C18.7095 16.4044 18.6685 16.4103 18.6298 16.424C18.591 16.4376 18.5554 16.4588 18.5248 16.4863Z" fill="white"/>
<path d="M22.9135 18.3005L23.3879 17.8328C23.4183 17.8029 23.4422 17.7671 23.4582 17.7275C23.4742 17.688 23.482 17.6456 23.481 17.6029C23.4799 17.5603 23.4702 17.5183 23.4523 17.4795C23.4345 17.4408 23.4089 17.4061 23.3771 17.3777L22.3818 16.4863C22.3513 16.4588 22.3156 16.4376 22.2769 16.424C22.2381 16.4103 22.1971 16.4044 22.1561 16.4066C22.115 16.4088 22.0748 16.419 22.0378 16.4368C22.0007 16.4545 21.9676 16.4794 21.9401 16.51C21.9127 16.5406 21.8916 16.5763 21.8779 16.615C21.8643 16.6538 21.8584 16.6948 21.8607 16.7359C21.863 16.7769 21.8733 16.817 21.8911 16.8541C21.9089 16.8911 21.9338 16.9243 21.9644 16.9517L22.712 17.6212L22.2449 18.0817C22.2151 18.1111 22.1915 18.1461 22.1755 18.1848C22.1595 18.2235 22.1515 18.2649 22.1518 18.3068C22.1522 18.3486 22.1609 18.39 22.1775 18.4284C22.1942 18.4668 22.2184 18.5014 22.2487 18.5303L23.2081 19.445C23.268 19.5023 23.3483 19.5334 23.4312 19.5314C23.514 19.5295 23.5928 19.4947 23.65 19.4347C23.7072 19.3748 23.7383 19.2945 23.7364 19.2116C23.7344 19.1287 23.6997 19.05 23.6397 18.9928L22.9135 18.3005Z" fill="white"/>
<path d="M24.6336 16.6328C24.6429 16.6731 24.6601 16.7112 24.6842 16.7448C24.7083 16.7785 24.7389 16.807 24.7741 16.8287C24.8093 16.8504 24.8485 16.8649 24.8893 16.8714C24.9302 16.8779 24.972 16.8762 25.0122 16.8664L26.3119 16.5507C26.3518 16.5411 26.3894 16.5237 26.4227 16.4995C26.4559 16.4753 26.484 16.4448 26.5054 16.4097C26.5268 16.3746 26.541 16.3357 26.5474 16.2951C26.5537 16.2545 26.5519 16.2131 26.5422 16.1731C26.5325 16.1332 26.5151 16.0956 26.4908 16.0624C26.4665 16.0293 26.436 16.0012 26.4009 15.9799C26.3657 15.9586 26.3268 15.9444 26.2862 15.9381C26.2456 15.9319 26.2041 15.9337 26.1642 15.9434L25.1722 16.1844L25.0276 15.5553C25.0093 15.4758 24.9606 15.4066 24.892 15.3624C24.8234 15.3183 24.7402 15.3027 24.6603 15.3191L23.674 15.5202C23.5928 15.5368 23.5215 15.5849 23.4758 15.6541C23.43 15.7232 23.4137 15.8077 23.4303 15.8889C23.4469 15.9702 23.495 16.0415 23.5642 16.0872C23.6333 16.1329 23.7178 16.1492 23.799 16.1327L24.4864 15.9924L24.6336 16.6328Z" fill="white"/>
<path d="M17.474 15.9001C17.4837 15.8602 17.4854 15.8188 17.4791 15.7783C17.4727 15.7377 17.4585 15.6988 17.4371 15.6637C17.4157 15.6287 17.3876 15.5982 17.3544 15.574C17.3213 15.5498 17.2837 15.5324 17.2437 15.5228L16.4138 15.3217C16.3736 15.3119 16.3318 15.3102 16.291 15.3167C16.2501 15.3232 16.211 15.3378 16.1758 15.3595C16.1406 15.3812 16.1101 15.4097 16.086 15.4433C16.0618 15.4769 16.0446 15.515 16.0353 15.5553L15.8908 16.1844L14.8987 15.9435C14.8588 15.9337 14.8174 15.9319 14.7768 15.9381C14.7362 15.9444 14.6972 15.9586 14.6621 15.9799C14.627 16.0012 14.5964 16.0293 14.5721 16.0624C14.5479 16.0956 14.5304 16.1332 14.5207 16.1731C14.511 16.2131 14.5092 16.2545 14.5156 16.2951C14.5219 16.3357 14.5362 16.3746 14.5576 16.4097C14.579 16.4448 14.6071 16.4753 14.6403 16.4995C14.6735 16.5237 14.7111 16.5411 14.7511 16.5507L16.0508 16.8665C16.091 16.8762 16.1327 16.8779 16.1736 16.8714C16.2144 16.8649 16.2536 16.8504 16.2888 16.8287C16.324 16.8069 16.3546 16.7784 16.3787 16.7448C16.4028 16.7112 16.42 16.6732 16.4293 16.6328L16.574 16.0036L17.0964 16.1301C17.177 16.1496 17.262 16.1364 17.3328 16.0933C17.4036 16.0502 17.4544 15.9807 17.474 15.9001Z" fill="white"/>
<path d="M20.784 18.2477L21.1154 17.8853C21.1686 17.8272 21.1978 17.751 21.1973 17.6722C21.1967 17.5933 21.1663 17.5176 21.1122 17.4602L20.2119 16.5047C20.1551 16.4444 20.0766 16.409 19.9937 16.4065C19.9108 16.404 19.8304 16.4345 19.77 16.4913C19.7096 16.5481 19.6743 16.6266 19.6718 16.7095C19.6693 16.7924 19.6998 16.8728 19.7566 16.9332L20.4581 17.6777L20.1315 18.0347C20.0792 18.0919 20.05 18.1665 20.0496 18.244C20.0492 18.3216 20.0777 18.3965 20.1294 18.4542L21.0022 19.4275C21.0575 19.489 21.1351 19.5261 21.2177 19.5305C21.3004 19.535 21.3814 19.5064 21.4431 19.4512C21.5047 19.396 21.542 19.3185 21.5466 19.2359C21.5513 19.1532 21.5229 19.0721 21.4678 19.0103L20.784 18.2477Z" fill="white"/>
</g>
</g>
<defs>
<clipPath id="clip0_414_4285">
<rect width="40" height="40" fill="white"/>
</clipPath>
<clipPath id="clip1_414_4285">
<rect width="20" height="20" fill="white" transform="translate(9.66663 10)"/>
</clipPath>
</defs>
</svg>
