<svg width="41" height="40" viewBox="0 0 41 40" fill="none" xmlns="http://www.w3.org/2000/svg">
<g clip-path="url(#clip0_414_4333)">
<path d="M40.3334 20C40.3334 8.9543 31.3791 0 20.3334 0C9.28768 0 0.333374 8.9543 0.333374 20C0.333374 31.0457 9.28768 40 20.3334 40C31.3791 40 40.3334 31.0457 40.3334 20Z" fill="#222222"/>
<g clip-path="url(#clip1_414_4333)">
<mask id="mask0_414_4333" style="mask-type:luminance" maskUnits="userSpaceOnUse" x="10" y="10" width="21" height="21">
<path d="M10.6667 10.3334H30.6667V30.3334H10.6667V10.3334Z" fill="white"/>
</mask>
<g mask="url(#mask0_414_4333)">
<path d="M14.8464 12.7943C14.8464 13.0101 14.6715 13.1849 14.4558 13.1849C14.2401 13.1849 14.0652 13.0101 14.0652 12.7943C14.0652 12.5786 14.2401 12.4037 14.4558 12.4037C14.6715 12.4037 14.8464 12.5786 14.8464 12.7943Z" fill="white"/>
<path d="M15.8338 11.7041C16.8831 11.0815 18.1082 10.724 19.4167 10.724C23.2999 10.724 26.448 13.872 26.448 17.7552C26.448 18.2556 26.6468 18.7353 27.0003 19.0888L28.7183 20.8849C29.1289 21.2955 28.9636 21.9947 28.4128 22.1783L27.2292 22.5599L27.648 23.5146C27.846 23.9107 27.6757 24.392 27.2726 24.5752L26.9363 24.7279C26.9983 24.79 27.0675 24.8592 27.0675 24.8592C27.3726 25.1642 27.3726 25.6588 27.0675 25.9638L26.8386 26.1927C26.8386 27.0556 26.139 27.7552 25.2761 27.7552H23.7136C22.6351 27.7552 21.7605 28.8642 21.7605 29.9427H15.5105C16.2917 24.474 12.3855 23.224 12.3855 17.7552C12.3855 16.4467 12.743 15.2216 13.3656 14.1723" stroke="white" stroke-width="0.78125" stroke-miterlimit="10" stroke-linecap="round" stroke-linejoin="round"/>
</g>
</g>
</g>
<defs>
<clipPath id="clip0_414_4333">
<rect width="40" height="40" fill="white" transform="translate(0.333374)"/>
</clipPath>
<clipPath id="clip1_414_4333">
<rect width="20" height="20" fill="white" transform="translate(10.6667 10.3334)"/>
</clipPath>
</defs>
</svg>
