<svg width="40" height="40" viewBox="0 0 40 40" fill="none" xmlns="http://www.w3.org/2000/svg">
<g clip-path="url(#clip0_64_214)">
<g clip-path="url(#clip1_64_214)">
<path d="M40 20C40 8.9543 31.0457 0 20 0C8.9543 0 0 8.9543 0 20C0 31.0457 8.9543 40 20 40C31.0457 40 40 31.0457 40 20Z" fill="#222222"/>
<path d="M13.75 24.5834H14.1666V25.0001C14.1676 25.3313 14.2996 25.6487 14.5338 25.8829C14.768 26.1171 15.0854 26.2491 15.4166 26.2501H15.8333C15.834 26.8024 16.0537 27.3319 16.4442 27.7225C16.8348 28.113 17.3643 28.3328 17.9166 28.3334H22.5C23.0523 28.3328 23.5818 28.113 23.9724 27.7225C24.3629 27.3319 24.5826 26.8024 24.5833 26.2501V23.6751C24.8264 23.5891 25.037 23.4301 25.1862 23.2197C25.3354 23.0093 25.4159 22.758 25.4166 22.5001V20.8334C25.4159 20.5755 25.3354 20.3242 25.1862 20.1138C25.037 19.9034 24.8264 19.7444 24.5833 19.6584V16.0417C24.5833 15.655 24.7369 15.284 25.0104 15.0106C25.2839 14.7371 25.6549 14.5834 26.0416 14.5834C26.4282 14.5841 26.7987 14.7379 27.0721 15.0113C27.3454 15.2846 27.4993 15.6552 27.5 16.0417V22.9167C27.5 23.0273 27.5439 23.1332 27.622 23.2114C27.7001 23.2895 27.8061 23.3334 27.9166 23.3334C28.0271 23.3334 28.1331 23.2895 28.2113 23.2114C28.2894 23.1332 28.3333 23.0273 28.3333 22.9167V16.0417C28.3325 15.4342 28.0908 14.8518 27.6612 14.4221C27.2316 13.9925 26.6492 13.7509 26.0416 13.7501C25.4341 13.7509 24.8516 13.9925 24.422 14.4221C23.9924 14.8518 23.7507 15.4342 23.75 16.0417V19.6584C23.5068 19.7444 23.2962 19.9034 23.147 20.1138C22.9978 20.3242 22.9174 20.5755 22.9166 20.8334V22.5001C22.9174 22.758 22.9978 23.0093 23.147 23.2197C23.2962 23.4301 23.5068 23.5891 23.75 23.6751V26.2501C23.75 26.5816 23.6183 26.8995 23.3838 27.134C23.1494 27.3684 22.8315 27.5001 22.5 27.5001H17.9166C17.5851 27.5001 17.2672 27.3684 17.0327 27.134C16.7983 26.8995 16.6666 26.5816 16.6666 26.2501H17.0833C17.4145 26.2491 17.7319 26.1171 17.9661 25.8829C18.2003 25.6487 18.3323 25.3313 18.3333 25.0001V24.5834H18.75C19.3025 24.5834 19.8324 24.3639 20.2231 23.9732C20.6138 23.5825 20.8333 23.0526 20.8333 22.5001V13.7501C20.8333 13.1975 20.6138 12.6676 20.2231 12.2769C19.8324 11.8862 19.3025 11.6667 18.75 11.6667H13.75C13.1974 11.6667 12.6675 11.8862 12.2768 12.2769C11.8861 12.6676 11.6666 13.1975 11.6666 13.7501V22.5001C11.6666 23.0526 11.8861 23.5825 12.2768 23.9732C12.6675 24.3639 13.1974 24.5834 13.75 24.5834ZM23.75 20.8334C23.75 20.7229 23.7939 20.6169 23.872 20.5388C23.9501 20.4606 24.0561 20.4167 24.1666 20.4167C24.2771 20.4167 24.3831 20.4606 24.4613 20.5388C24.5394 20.6169 24.5833 20.7229 24.5833 20.8334V22.5001C24.5833 22.6106 24.5394 22.7166 24.4613 22.7947C24.3831 22.8729 24.2771 22.9167 24.1666 22.9167C24.0561 22.9167 23.9501 22.8729 23.872 22.7947C23.7939 22.7166 23.75 22.6106 23.75 22.5001V20.8334ZM17.5 25.0001C17.5 25.1106 17.4561 25.2166 17.3779 25.2947C17.2998 25.3729 17.1938 25.4167 17.0833 25.4167H15.4166C15.3061 25.4167 15.2001 25.3729 15.122 25.2947C15.0439 25.2166 15 25.1106 15 25.0001V24.5834H17.5V25.0001ZM18.75 23.7501H13.75C13.4187 23.7491 13.1014 23.6171 12.8672 23.3829C12.633 23.1487 12.5009 22.8313 12.5 22.5001V15.0001H20V16.2501H18.3333C18.2228 16.2501 18.1168 16.294 18.0387 16.3721C17.9605 16.4503 17.9166 16.5562 17.9166 16.6667C17.9166 16.7773 17.9605 16.8832 18.0387 16.9614C18.1168 17.0395 18.2228 17.0834 18.3333 17.0834H20V17.9167H18.3333C18.2228 17.9167 18.1168 17.9606 18.0387 18.0388C17.9605 18.1169 17.9166 18.2229 17.9166 18.3334C17.9166 18.4439 17.9605 18.5499 18.0387 18.628C18.1168 18.7062 18.2228 18.7501 18.3333 18.7501H20V19.5834H18.3333C18.2228 19.5834 18.1168 19.6273 18.0387 19.7055C17.9605 19.7836 17.9166 19.8896 17.9166 20.0001C17.9166 20.1106 17.9605 20.2166 18.0387 20.2947C18.1168 20.3729 18.2228 20.4167 18.3333 20.4167H20V21.2501H18.3333C18.2228 21.2501 18.1168 21.294 18.0387 21.3721C17.9605 21.4503 17.9166 21.5562 17.9166 21.6667C17.9166 21.7773 17.9605 21.8832 18.0387 21.9614C18.1168 22.0395 18.2228 22.0834 18.3333 22.0834H20V22.5001C19.999 22.8313 19.867 23.1487 19.6328 23.3829C19.3985 23.6171 19.0812 23.7491 18.75 23.7501ZM13.75 12.5001H18.75C19.0812 12.5011 19.3985 12.6331 19.6328 12.8673C19.867 13.1015 19.999 13.4189 20 13.7501V14.1667H12.5V13.7501C12.5009 13.4189 12.633 13.1015 12.8672 12.8673C13.1014 12.6331 13.4187 12.5011 13.75 12.5001Z" fill="white"/>
</g>
</g>
<defs>
<clipPath id="clip0_64_214">
<rect width="40" height="40" fill="white"/>
</clipPath>
<clipPath id="clip1_64_214">
<rect width="40" height="40" fill="white"/>
</clipPath>
</defs>
</svg>
