<svg width="40" height="40" viewBox="0 0 40 40" fill="none" xmlns="http://www.w3.org/2000/svg">
<g clip-path="url(#clip0_64_203)">
<g clip-path="url(#clip1_64_203)">
<path d="M40 20C40 8.9543 31.0457 0 20 0C8.9543 0 0 8.9543 0 20C0 31.0457 8.9543 40 20 40C31.0457 40 40 31.0457 40 20Z" fill="#222222"/>
<g clip-path="url(#clip2_64_203)">
<path d="M17.8583 28.4833C17.9833 29.2249 18.625 29.7916 19.4041 29.7916H20.6041C21.3791 29.7916 22.0208 29.2249 22.15 28.4833C22.6208 28.3458 22.9666 27.9166 22.9666 27.4041V25.2291C22.9666 25.0499 23.0583 24.8791 23.2083 24.7874C25.0875 23.6499 26.2083 21.6666 26.2083 19.4791C26.2083 17.7166 25.4541 16.0333 24.1416 14.8541C22.8083 13.6624 21.0916 13.1166 19.2958 13.3124C16.4541 13.6333 14.1583 15.9208 13.8375 18.7583C13.5583 21.2083 14.6916 23.5208 16.8 24.7916C16.95 24.8833 17.0416 25.0499 17.0416 25.2291V27.4041C17.0375 27.9166 17.3875 28.3458 17.8583 28.4833ZM17.6625 26.0999H22.3333V26.6458H17.6625V26.0999ZM20.6 29.1666H19.4C18.9875 29.1666 18.6416 28.8999 18.5125 28.5333H21.4875C21.3583 28.8999 21.0125 29.1666 20.6 29.1666ZM21.8291 27.9083H18.1708C17.8916 27.9083 17.6666 27.6833 17.6666 27.4041V27.2708H22.3375V27.4041C22.3375 27.6833 22.1083 27.9083 21.8291 27.9083ZM14.4583 18.8291C14.75 16.2791 16.8083 14.2249 19.3583 13.9416C19.575 13.9166 19.7916 13.9041 20.0041 13.9041C21.3791 13.9041 22.6791 14.3958 23.7166 15.3249C24.9 16.3833 25.575 17.8999 25.575 19.4833C25.575 21.4499 24.5666 23.2333 22.875 24.2541C22.5375 24.4583 22.3291 24.8291 22.3291 25.2291V25.4749H20.3041V19.9208L22.0708 18.1541L21.6291 17.7124L20 19.3499L18.3625 17.7124L17.9208 18.1541L19.6875 19.9208V25.4708H17.6625V25.2249C17.6625 24.8249 17.4541 24.4541 17.1208 24.2499C15.2291 23.1124 14.2083 21.0291 14.4583 18.8291Z" fill="white"/>
<path d="M10.725 19.1709H13.0291V19.7959H10.725V19.1709Z" fill="white"/>
<path d="M26.9708 19.1709H29.275V19.7959H26.9708V19.1709Z" fill="white"/>
<path d="M19.6875 10.2083H20.3125V12.5124H19.6875V10.2083Z" fill="white"/>
<path d="M13.2224 13.145L13.6644 12.7031L15.2936 14.3324L14.8517 14.7743L13.2224 13.145Z" fill="white"/>
<path d="M24.7048 14.3323L26.3341 12.703L26.7761 13.1449L25.1468 14.7742L24.7048 14.3323Z" fill="white"/>
</g>
</g>
</g>
<defs>
<clipPath id="clip0_64_203">
<rect width="40" height="40" fill="white"/>
</clipPath>
<clipPath id="clip1_64_203">
<rect width="40" height="40" fill="white"/>
</clipPath>
<clipPath id="clip2_64_203">
<rect width="20" height="20" fill="white" transform="translate(10 10)"/>
</clipPath>
</defs>
</svg>
