<svg width="40" height="40" viewBox="0 0 40 40" fill="none" xmlns="http://www.w3.org/2000/svg">
<g clip-path="url(#clip0_157_203)">
<path d="M40 20C40 8.9543 31.0457 0 20 0C8.9543 0 0 8.9543 0 20C0 31.0457 8.9543 40 20 40C31.0457 40 40 31.0457 40 20Z" fill="#222222"/>
<path fill-rule="evenodd" clip-rule="evenodd" d="M23.3593 19.9804C23.2565 19.9628 23.1583 19.9434 23.0648 19.9217L23.8361 17.227C23.9319 17.2454 24.0301 17.2714 24.1283 17.3046C25.0398 17.7314 25.1941 18.4498 25.0375 18.9811C24.8646 19.5559 24.2662 20.1136 23.3593 19.9804ZM22.5599 19.7688L23.2939 17.1978C22.9713 17.2249 22.6441 17.3312 22.3075 17.5175C21.9312 17.73 21.5665 17.9691 21.216 18.2365C21.3796 18.9024 21.7279 19.4474 22.5599 19.7688ZM22.3847 20.3798C22.207 20.7924 21.985 21.0389 21.7232 21.1121C21.417 21.1979 21.0126 21.0642 20.5241 20.7145L19.512 19.8576C19.9164 19.3874 20.3348 18.969 20.7672 18.5976C21.0285 19.4089 21.5358 19.953 22.415 20.2786L22.3847 20.3798ZM22.3285 14.9651L20.9916 16.0595C21.0465 16.5804 21.0589 17.1392 21.1155 17.6536C21.4193 17.4362 21.7302 17.2373 22.0504 17.0564C22.5179 16.7976 22.9853 16.6667 23.4481 16.6639L23.7427 15.6327C23.8385 15.1596 23.7613 14.8076 23.5276 14.6662C23.2401 14.4925 22.7586 14.6126 22.3285 14.9651ZM16.9783 20.6591C16.8397 20.6591 16.7527 20.6423 16.6628 20.4934C16.4174 20.0844 16.5272 19.1466 16.7235 18.7869C16.8801 18.5518 17.0227 18.5125 17.2565 18.6406L18.7547 19.9084C18.2265 20.4242 17.6655 20.6591 16.9783 20.6591ZM19.7505 16.3921C19.2596 16.7184 18.3901 17.1798 17.9881 16.6765C17.4422 15.9953 17.9893 14.0879 19.0165 14.0879C19.3578 14.0879 19.685 14.2899 19.9398 14.5114C20.2226 14.8983 20.3559 15.3492 20.4307 15.836L19.7505 16.3921ZM25.5424 19.1319C25.7551 18.4207 25.5658 17.3882 24.3363 16.8194C24.2705 16.7877 24.0545 16.7333 23.9811 16.7177L24.2569 15.7491C24.4041 15.0392 24.2381 14.4799 23.8011 14.2146C23.3149 13.921 22.6067 14.055 21.9943 14.5566L20.8981 15.4541C20.7999 14.9997 20.6387 14.564 20.3465 14.1734C20.3348 14.1592 20.3231 14.1458 20.3091 14.1342C19.1615 13.1181 18.3223 13.6896 18.0138 13.9829C17.6445 14.3344 17.3781 14.8786 17.2822 15.4751C17.1841 16.0926 17.2892 16.6508 17.5744 17.0063C17.8619 17.3653 18.5654 17.819 20.0543 16.824L20.4984 16.4631C20.5312 16.9584 20.5562 17.5486 20.6339 18.0216C20.1034 18.4536 19.5961 18.9496 19.11 19.5166C18.9389 19.3718 17.5969 18.2267 17.5393 18.1939C17.0485 17.9129 16.5903 18.0265 16.2771 18.5059C16.2748 18.5106 16.2725 18.5155 16.2678 18.5204C15.9967 19.0017 15.8354 20.1423 16.2093 20.7652C16.3776 21.0434 16.6417 21.1936 16.9549 21.1871H16.9783C18.0161 21.1871 18.7009 20.7135 19.1591 20.251L20.2085 21.137C20.697 21.4884 21.1411 21.6646 21.5361 21.6646C21.6507 21.6646 21.7605 21.6501 21.8657 21.6207C22.2934 21.501 22.6323 21.1483 22.8778 20.5714L22.9199 20.43L23.2775 20.502C24.4439 20.675 25.2993 19.9434 25.5424 19.1319ZM25.0679 28.1831C24.3504 26.6425 24.1003 25.525 24.2826 24.6794C24.7477 22.5079 26.6737 21.7377 26.6737 18.398C26.6737 14.6003 24.7431 12.1503 21.5082 11.8448C21.5082 11.8443 21.5058 11.8443 21.5058 11.8443C18.6987 11.5605 16.0832 13.4367 15.4217 16.2081C15.3843 16.3619 15.3913 16.6272 15.396 16.8401C15.4054 17.1952 15.4027 17.4363 15.1926 17.7645L13.3671 20.614C14.655 21.2184 14.8397 21.3699 14.8397 21.6041V24.8876C14.8397 24.9503 14.8677 24.9998 14.9261 25.0391C15.1949 25.1001 16.768 25.0657 17.3663 25.0524C17.6024 25.0475 17.7894 25.0433 17.8806 25.0433C18.0255 25.0433 18.1447 25.1613 18.1447 25.3072V28.183H25.0679V28.1831ZM25.7621 22.7856C26.4376 21.7418 27.2019 20.5584 27.2019 18.398C27.2019 15.754 26.2793 13.303 24.1073 12.0808C23.3687 11.6654 22.5109 11.4093 21.5595 11.3188C20.0753 11.1694 18.5794 11.5768 17.3453 12.4662C16.1205 13.3506 15.2534 14.6362 14.9075 16.0856C14.842 16.3632 14.8724 16.7476 14.8724 17.0523C14.8724 17.2129 14.835 17.3445 14.7462 17.4794L12.8669 20.4134C12.7268 20.6346 12.8066 20.9346 13.0516 21.0494C13.7121 21.3592 14.1515 21.5789 14.3114 21.6971V24.8876C14.3114 25.1445 14.4447 25.3698 14.6761 25.5049C14.8805 25.6244 15.7275 25.6191 17.6165 25.575V28.2929C17.6165 28.5234 17.8105 28.711 18.0489 28.711H25.2432C25.5305 28.711 25.778 28.4403 25.6499 28.1758C24.916 26.6521 24.6355 25.5444 24.7968 24.7894C24.9604 24.0277 25.3507 23.4244 25.7621 22.7856Z" fill="white"/>
</g>
<defs>
<clipPath id="clip0_157_203">
<rect width="40" height="40" fill="white"/>
</clipPath>
</defs>
</svg>
