<svg width="40" height="40" viewBox="0 0 40 40" fill="none" xmlns="http://www.w3.org/2000/svg">
<g clip-path="url(#clip0_157_293)">
<path d="M40 20C40 8.9543 31.0457 0 20 0C8.9543 0 0 8.9543 0 20C0 31.0457 8.9543 40 20 40C31.0457 40 40 31.0457 40 20Z" fill="#222222"/>
<path d="M15.0212 19.1916C15.1272 19.3278 15.1028 19.5241 14.9665 19.63C14.7306 19.8138 14.4262 19.915 14.1103 19.915C13.7937 19.915 13.4897 19.8138 13.2537 19.63C13.1175 19.5238 13.0931 19.3275 13.1993 19.1913C13.3056 19.055 13.5025 19.0309 13.6381 19.1369C13.8912 19.3341 14.329 19.3344 14.5828 19.1369C14.719 19.0309 14.915 19.0553 15.0212 19.1916ZM28.9559 21.4341C28.8918 21.6569 28.7347 21.8409 28.5243 21.9387L27.8603 22.2475L27.5897 23.7887C27.4415 24.6309 26.7137 25.2422 25.8587 25.2422H24.5728C24.4418 25.2422 24.3275 25.3353 24.3006 25.4634L24.0931 26.4622C24.0631 26.6072 23.9353 26.7109 23.7872 26.7109H16.2128C16.0647 26.7109 15.9368 26.6069 15.9068 26.4622L15.6993 25.4634C15.6728 25.335 15.5581 25.2422 15.4272 25.2422H14.1412C13.2862 25.2422 12.5584 24.6309 12.4103 23.7891L12.1397 22.2475L11.4756 21.9387C11.2653 21.8409 11.1081 21.6569 11.044 21.4341C10.98 21.2109 11.0159 20.9716 11.1425 20.7769L12.1065 19.2953V18.6219C12.1065 15.6813 14.499 13.2891 17.4397 13.2891H17.7837C18.5675 13.2891 19.3203 13.46 20.0034 13.7675C20.7025 13.4538 21.4447 13.2891 22.2159 13.2891H22.56C25.5006 13.2891 27.8931 15.6816 27.8931 18.6219V19.2953L28.8572 20.7769C28.984 20.9713 29.0197 21.2109 28.9559 21.4341ZM20.9137 22.7894L21.88 21.2013C22.5572 20.0881 22.7525 18.7278 22.4159 17.4694C22.0606 16.1419 21.1637 15.0697 20.0031 14.4619C18.8125 15.0831 17.9331 16.1684 17.585 17.4694C17.2481 18.7278 17.4434 20.0881 18.1209 21.2013L19.0872 22.7894C19.4797 23.4347 19.6112 24.1972 19.4578 24.9366L19.2187 26.0863H20.7822L20.5431 24.9366C20.3897 24.1972 20.5212 23.4347 20.9137 22.7894ZM16.4672 26.0863H18.5806L18.8459 24.8094C18.9672 24.2256 18.8634 23.6237 18.5531 23.1144L17.5868 21.5262C16.8212 20.2681 16.6006 18.7306 16.9812 17.3078C17.3312 15.9991 18.1562 14.8822 19.2815 14.1566C18.8068 14 18.3031 13.9138 17.7837 13.9138H17.4397C14.8434 13.9138 12.7315 16.0256 12.7315 18.6216V19.3878C12.7315 19.4484 12.714 19.5075 12.6809 19.5581L11.6662 21.1175C11.6281 21.1759 11.6365 21.2328 11.6447 21.2613C11.6528 21.2897 11.6762 21.3425 11.739 21.3719L12.5506 21.7494C12.6431 21.7925 12.7087 21.8781 12.7265 21.9788L13.0256 23.6806C13.1209 24.2231 13.5903 24.6172 14.1409 24.6172H15.4268C15.8525 24.6172 16.2243 24.9197 16.3109 25.3363L16.4672 26.0863ZM28.3334 21.1178L27.3187 19.5584C27.2859 19.5078 27.2681 19.4484 27.2681 19.3881V18.6219C27.2681 16.0259 25.1562 13.9141 22.56 13.9141H22.2159C21.7012 13.9141 21.2015 13.9981 20.7212 14.1566C21.824 14.8687 22.6631 15.9753 23.0197 17.3084C23.4003 18.7309 23.1797 20.2684 22.414 21.5269L21.4478 23.115C21.1378 23.6244 21.0337 24.2262 21.155 24.81L21.4203 26.0869H23.5325L23.6884 25.3369C23.775 24.9203 24.1468 24.6178 24.5725 24.6178H25.8584C26.4093 24.6178 26.8784 24.2241 26.9737 23.6812L27.2728 21.9797C27.2906 21.8791 27.3562 21.7934 27.4487 21.7503L28.2603 21.3728C28.3234 21.3434 28.3465 21.2909 28.3547 21.2622C28.3628 21.2334 28.3715 21.1759 28.3334 21.1178ZM26.3618 19.1369C26.1084 19.3341 25.6709 19.3344 25.4172 19.1369C25.2809 19.0309 25.0847 19.055 24.9787 19.1916C24.8728 19.3278 24.8972 19.5241 25.0334 19.63C25.2693 19.8138 25.5737 19.915 25.8897 19.915C26.2062 19.915 26.5103 19.8138 26.7462 19.63C26.8825 19.5238 26.9068 19.3275 26.8006 19.1913C26.694 19.055 26.4978 19.0309 26.3618 19.1369Z" fill="white"/>
</g>
<defs>
<clipPath id="clip0_157_293">
<rect width="40" height="40" fill="white"/>
</clipPath>
</defs>
</svg>
