<svg width="40" height="40" viewBox="0 0 40 40" fill="none" xmlns="http://www.w3.org/2000/svg">
<g clip-path="url(#clip0_157_159)">
<path d="M40 20C40 8.9543 31.0457 0 20 0C8.9543 0 0 8.9543 0 20C0 31.0457 8.9543 40 20 40C31.0457 40 40 31.0457 40 20Z" fill="#222222"/>
<g clip-path="url(#clip1_157_159)">
<mask id="mask0_157_159" style="mask-type:luminance" maskUnits="userSpaceOnUse" x="10" y="10" width="21" height="21">
<path d="M10.3335 10.3335H30.3335V30.3335H10.3335V10.3335Z" fill="white"/>
</mask>
<g mask="url(#mask0_157_159)">
<path d="M20.646 15.8022C20.8616 15.8022 21.0366 15.9772 21.0366 16.1929C21.0366 16.4085 20.8616 16.5835 20.646 16.5835C20.4304 16.5835 20.2554 16.4085 20.2554 16.1929C20.2554 15.9772 20.4304 15.8022 20.646 15.8022Z" fill="white"/>
<path d="M17.521 15.8022C17.7366 15.8022 17.9116 15.9772 17.9116 16.1929C17.9116 16.4085 17.7366 16.5835 17.521 16.5835C17.3054 16.5835 17.1304 16.4085 17.1304 16.1929C17.1304 15.9772 17.3054 15.8022 17.521 15.8022Z" fill="white"/>
<path d="M22.9897 17.7554C22.9897 19.9128 21.2409 21.6616 19.0835 21.6616C16.9261 21.6616 15.1772 19.9128 15.1772 17.7554C15.1772 15.5979 16.9261 13.8491 19.0835 13.8491C21.2409 13.8491 22.9897 15.5979 22.9897 17.7554Z" stroke="white" stroke-width="0.78125" stroke-miterlimit="10" stroke-linecap="round" stroke-linejoin="round"/>
<path d="M17.521 19.3179C17.521 18.455 18.2206 17.7554 19.0835 17.7554C19.9464 17.7554 20.646 18.455 20.646 19.3179" stroke="white" stroke-width="0.78125" stroke-miterlimit="10" stroke-linecap="round" stroke-linejoin="round"/>
<path d="M14.5132 12.7944C14.5132 13.0102 14.3383 13.1851 14.1226 13.1851C13.9069 13.1851 13.7319 13.0102 13.7319 12.7944C13.7319 12.5787 13.9069 12.4038 14.1226 12.4038C14.3383 12.4038 14.5132 12.5787 14.5132 12.7944Z" fill="white"/>
<path d="M15.5005 11.7042C16.5498 11.0816 17.7749 10.7241 19.0835 10.7241C22.9667 10.7241 26.1147 13.8722 26.1147 17.7554C26.1147 18.2558 26.3135 18.7354 26.667 19.089L28.3851 20.8851C28.7956 21.2956 28.6304 21.9948 28.0795 22.1784L26.896 22.5601L27.3147 23.5147C27.5128 23.9108 27.3424 24.3921 26.9394 24.5753L26.603 24.728C26.6651 24.7901 26.7343 24.8593 26.7343 24.8593C27.0394 25.1644 27.0394 25.6589 26.7343 25.964L26.5054 26.1929C26.5054 27.0558 25.8057 27.7554 24.9429 27.7554H23.3804C22.3018 27.7554 21.4272 28.8644 21.4272 29.9429H15.1772C15.9585 24.4741 12.0522 23.2241 12.0522 17.7554C12.0522 16.4468 12.4097 15.2217 13.0323 14.1724" stroke="white" stroke-width="0.78125" stroke-miterlimit="10" stroke-linecap="round" stroke-linejoin="round"/>
</g>
</g>
</g>
<defs>
<clipPath id="clip0_157_159">
<rect width="40" height="40" fill="white"/>
</clipPath>
<clipPath id="clip1_157_159">
<rect width="20" height="20" fill="white" transform="translate(10.3335 10.3335)"/>
</clipPath>
</defs>
</svg>
