<svg width="40" height="40" viewBox="0 0 40 40" fill="none" xmlns="http://www.w3.org/2000/svg">
<g clip-path="url(#clip0_157_263)">
<path d="M40 20C40 8.9543 31.0457 0 20 0C8.9543 0 0 8.9543 0 20C0 31.0457 8.9543 40 20 40C31.0457 40 40 31.0457 40 20Z" fill="#222222"/>
<path d="M26.4622 29.8134H18.7644C18.64 29.8134 18.5422 29.7157 18.5422 29.5912V26.2312H13.9955C13.8711 26.2312 13.7733 26.1334 13.7733 26.009V22.8668C12.9644 22.6357 12.5111 22.3023 12.3911 21.8534C12.1866 21.1068 12.9733 20.3112 13.6711 19.6134L13.7555 19.529C13.9822 19.2979 13.9244 19.1246 13.68 18.6401C13.4711 18.2268 13.2089 17.7112 13.3244 17.0268C14.2977 11.209 18.4222 10.2846 20.7911 10.2534C23.1377 10.2223 25.3066 11.5957 26.6 13.9246C27.2755 15.1379 27.6444 16.4979 27.6666 17.8534C27.6933 19.3023 27.3111 20.6801 26.5689 21.8401C25.3111 23.8223 26.6622 29.4801 26.6755 29.5379C26.6933 29.6046 26.6755 29.6757 26.6355 29.729C26.5911 29.7823 26.5289 29.8134 26.4622 29.8134ZM18.9866 29.369H26.1777C25.9111 28.1734 24.9866 23.5023 26.1911 21.6046C27.5466 19.4934 27.5511 16.5646 26.2089 14.1468C25.0089 11.9868 23.0177 10.7023 20.8666 10.7023C20.8444 10.7023 20.8177 10.7023 20.7955 10.7023C18.5644 10.7334 14.68 11.6046 13.7511 17.1023C13.6577 17.6446 13.8755 18.0668 14.0666 18.4401C14.2889 18.8757 14.5377 19.3646 14.0622 19.8446L13.9777 19.929C13.3955 20.5112 12.6755 21.2401 12.8133 21.7379C12.8977 22.0401 13.3244 22.2979 14.0444 22.4846C14.1422 22.5112 14.2133 22.6001 14.2133 22.6979V25.7868H18.7644C18.8889 25.7868 18.9866 25.8846 18.9866 26.009V29.369Z" fill="white"/>
<path d="M20.6134 21.8845C18.4623 21.8845 16.7112 20.1334 16.7112 17.9823C16.7112 15.8312 18.4623 14.0801 20.6134 14.0801C22.7645 14.0801 24.5156 15.8312 24.5156 17.9823C24.5156 20.1334 22.769 21.8845 20.6134 21.8845ZM20.6134 14.5245C18.7067 14.5245 17.1556 16.0756 17.1556 17.9823C17.1556 19.889 18.7067 21.4401 20.6134 21.4401C22.5201 21.4401 24.0712 19.889 24.0712 17.9823C24.0712 16.0756 22.5201 14.5245 20.6134 14.5245Z" fill="white"/>
<path d="M20.6134 19.5823C19.729 19.5823 19.0134 18.8668 19.0134 17.9823C19.0134 17.0979 19.729 16.3823 20.6134 16.3823C21.4979 16.3823 22.2134 17.0979 22.2134 17.9823C22.2134 18.8668 21.4979 19.5823 20.6134 19.5823ZM20.6134 16.8268C19.9779 16.8268 19.4579 17.3468 19.4579 17.9823C19.4579 18.6179 19.9779 19.1379 20.6134 19.1379C21.249 19.1379 21.769 18.6179 21.769 17.9823C21.769 17.3468 21.2534 16.8268 20.6134 16.8268Z" fill="white"/>
<path d="M20.6133 16.8268C20.4889 16.8268 20.3911 16.729 20.3911 16.6046V12.8624C20.3911 12.7379 20.4889 12.6401 20.6133 12.6401C20.7378 12.6401 20.8356 12.7379 20.8356 12.8624V16.6046C20.8356 16.7246 20.7378 16.8268 20.6133 16.8268Z" fill="white"/>
<path d="M19.2357 18.2047H15.4935C15.369 18.2047 15.2712 18.1069 15.2712 17.9825C15.2712 17.858 15.369 17.7603 15.4935 17.7603H19.2357C19.3601 17.7603 19.4579 17.858 19.4579 17.9825C19.4579 18.1069 19.3601 18.2047 19.2357 18.2047Z" fill="white"/>
<path d="M20.6133 23.3244C20.4889 23.3244 20.3911 23.2266 20.3911 23.1021V19.3599C20.3911 19.2355 20.4889 19.1377 20.6133 19.1377C20.7378 19.1377 20.8356 19.2355 20.8356 19.3599V23.1021C20.8356 23.2221 20.7378 23.3244 20.6133 23.3244Z" fill="white"/>
<path d="M25.7335 18.2047H21.9913C21.8668 18.2047 21.769 18.1069 21.769 17.9825C21.769 17.858 21.8668 17.7603 21.9913 17.7603H25.7335C25.8579 17.7603 25.9557 17.858 25.9557 17.9825C25.9557 18.1069 25.8579 18.2047 25.7335 18.2047Z" fill="white"/>
<path d="M20.6134 18.6712C20.2357 18.6712 19.9246 18.3646 19.9246 17.9823C19.9246 17.6001 20.2312 17.2935 20.6134 17.2935C20.9912 17.2935 21.3023 17.6001 21.3023 17.9823C21.3023 18.3646 20.9957 18.6712 20.6134 18.6712ZM20.6134 17.7379C20.4801 17.7379 20.369 17.849 20.369 17.9823C20.369 18.1157 20.4801 18.2268 20.6134 18.2268C20.7468 18.2268 20.8579 18.1157 20.8579 17.9823C20.8579 17.8446 20.7512 17.7379 20.6134 17.7379Z" fill="white"/>
<path d="M22.7867 16.9513C22.7111 16.9513 22.6356 16.9113 22.5956 16.8402C22.3956 16.4935 22.1067 16.2046 21.76 16.0046C21.6534 15.9424 21.6178 15.8091 21.68 15.7024C21.7423 15.5957 21.8756 15.5602 21.9823 15.6224C22.3956 15.8624 22.7423 16.2091 22.9823 16.6224C23.0445 16.7291 23.0089 16.8624 22.9023 16.9246C22.8623 16.9424 22.8267 16.9513 22.7867 16.9513Z" fill="white"/>
<path d="M18.4444 16.9514C18.4088 16.9514 18.3688 16.9425 18.3333 16.9202C18.2266 16.858 18.1911 16.7247 18.2533 16.618C18.4933 16.2047 18.8399 15.858 19.2533 15.618C19.3599 15.5558 19.4933 15.5914 19.5555 15.698C19.6177 15.8047 19.5822 15.938 19.4755 16.0002C19.1288 16.2002 18.8399 16.4891 18.6399 16.8358C18.5955 16.9114 18.5199 16.9514 18.4444 16.9514Z" fill="white"/>
<path d="M19.36 20.3732C19.3244 20.3732 19.2844 20.3643 19.2489 20.3421C18.8355 20.1021 18.4889 19.7555 18.2489 19.3421C18.1867 19.2355 18.2222 19.1021 18.3289 19.0399C18.4355 18.9777 18.5689 19.0132 18.6311 19.1199C18.8311 19.4666 19.12 19.7555 19.4667 19.9555C19.5733 20.0177 19.6089 20.151 19.5467 20.2577C19.5111 20.3332 19.44 20.3732 19.36 20.3732Z" fill="white"/>
<path d="M21.8711 20.3732C21.7956 20.3732 21.72 20.3332 21.68 20.2621C21.6178 20.1554 21.6534 20.0221 21.76 19.9598C22.1067 19.7598 22.3956 19.471 22.5956 19.1243C22.6578 19.0176 22.7911 18.9821 22.8978 19.0443C23.0045 19.1065 23.04 19.2398 22.9778 19.3465C22.7378 19.7598 22.3911 20.1065 21.9778 20.3465C21.9467 20.3643 21.9067 20.3732 21.8711 20.3732Z" fill="white"/>
</g>
<defs>
<clipPath id="clip0_157_263">
<rect width="40" height="40" fill="white"/>
</clipPath>
</defs>
</svg>
