<svg width="40" height="40" viewBox="0 0 40 40" fill="none" xmlns="http://www.w3.org/2000/svg">
<g clip-path="url(#clip0_157_233)">
<path d="M40 20C40 8.9543 31.0457 0 20 0C8.9543 0 0 8.9543 0 20C0 31.0457 8.9543 40 20 40C31.0457 40 40 31.0457 40 20Z" fill="#222222"/>
<g clip-path="url(#clip1_157_233)">
<path d="M25.0554 24.6722C25.0331 24.4082 25.11 24.1454 25.2711 23.9351C27.8324 20.5992 28.63 16.8908 27.4044 14.0152C26.4118 11.6861 23.8662 10.0738 21.07 10.0033C18.8506 9.9427 16.7113 10.7235 15.1967 12.1337C13.9405 13.3032 12.762 15.4411 13.1432 17.3713C13.1804 17.5409 13.227 17.7083 13.283 17.8727C13.4084 18.2655 13.5269 18.6364 13.3611 18.9174C13.3589 18.9211 13.359 18.921 12.3228 20.7329C12.1263 20.9838 12.0241 21.2957 12.0341 21.6142C12.0872 22.317 12.731 22.4617 13.1157 22.5481C13.1609 22.5583 13.2054 22.5682 13.2485 22.5787C13.2896 22.5876 13.3299 22.6001 13.369 22.6158C13.3807 22.7934 13.3585 22.9717 13.3034 23.141C13.2726 23.2336 13.1349 23.7063 13.4592 23.9155C13.467 23.9209 13.4751 23.9256 13.4836 23.9296C13.5674 23.9776 13.5889 24.0664 13.5476 24.194C13.5004 24.2909 13.4751 24.3969 13.4734 24.5046C13.4717 24.6123 13.4936 24.7191 13.5376 24.8175C13.5707 24.8745 13.6156 24.9238 13.6693 24.9621C13.7229 25.0004 13.7841 25.0268 13.8488 25.0396C13.8826 25.059 13.9405 25.1013 13.9299 25.1582C13.6931 25.9464 13.7315 26.9547 14.5466 27.4332C15.1969 27.8148 15.9885 27.7349 16.687 27.6644C16.894 27.6435 17.0896 27.6238 17.2714 27.6166C17.2818 27.6163 17.2922 27.6154 17.3025 27.6139C17.4891 27.5821 17.6804 27.5907 17.8635 27.6389C17.9293 27.7332 18.6012 28.7226 18.5187 29.6602C18.5115 29.7428 18.5374 29.8248 18.5906 29.8883C18.6439 29.9518 18.7202 29.9916 18.8028 29.9988C18.8121 29.9995 18.8213 30 18.8306 30C18.9087 29.9999 18.9839 29.9706 19.0415 29.9178C19.0991 29.8651 19.1348 29.7926 19.1417 29.7148C19.2487 28.499 18.4011 27.315 18.3707 27.2733C18.13 26.9182 17.5061 26.9564 17.2318 26.9929C17.0356 27.0011 16.8356 27.0212 16.6242 27.0426C15.9915 27.1062 15.3373 27.1726 14.8633 26.8943C14.2108 26.5113 14.4724 25.5235 14.5314 25.3294C14.533 25.3243 14.5344 25.3192 14.5356 25.314C14.5739 25.1461 14.5525 24.9701 14.4751 24.8164C14.3976 24.6626 14.269 24.5407 14.1113 24.4715C14.1151 24.4591 14.1195 24.4468 14.1246 24.4348C14.1285 24.4262 14.132 24.4174 14.1351 24.4085C14.2055 24.2413 14.2182 24.0553 14.1713 23.8801C14.1243 23.7048 14.0204 23.5501 13.8758 23.4404C13.8802 23.4049 13.8875 23.3698 13.8977 23.3355C13.9826 23.0762 14.0137 22.8023 13.9891 22.5305C13.9448 22.1057 13.5469 22.0084 13.397 21.9717C13.3503 21.9603 13.302 21.9493 13.2529 21.9383C12.8129 21.8394 12.6735 21.7754 12.6577 21.5672C12.66 21.3938 12.7222 21.2265 12.8337 21.0938C12.8419 21.0829 12.8494 21.0716 12.8561 21.0597C12.8561 21.0597 13.8906 19.2511 13.8987 19.237C14.2077 18.7127 14.0253 18.1415 13.8787 17.6826C13.8302 17.5408 13.7895 17.3965 13.7567 17.2503C13.4219 15.5545 14.4894 13.6464 15.623 12.5911C17.0189 11.2916 18.9981 10.5804 21.0542 10.628C23.61 10.6925 25.9306 12.1521 26.8291 14.2603C27.965 16.9255 27.1971 20.4001 24.775 23.5545C24.5193 23.8878 24.397 24.3045 24.4321 24.7232C24.5254 26.0486 24.8328 27.3502 25.3426 28.5773C25.3755 28.6532 25.4371 28.713 25.514 28.7436C25.5909 28.7741 25.6768 28.773 25.7528 28.7404C25.8288 28.7077 25.8888 28.6463 25.9197 28.5695C25.9505 28.4927 25.9496 28.4069 25.9173 28.3307C25.4345 27.1657 25.1434 25.9302 25.0554 24.6722Z" fill="white"/>
<path d="M18.5279 14.4103L18.9949 13.9498C19.0247 13.9204 19.0484 13.8854 19.0644 13.8467C19.0804 13.808 19.0884 13.7666 19.0881 13.7247C19.0877 13.6829 19.079 13.6415 19.0623 13.6031C19.0457 13.5647 19.0215 13.5301 18.9912 13.5012L18.0318 12.5865C18.0021 12.5581 17.9671 12.5359 17.9289 12.5211C17.8906 12.5063 17.8497 12.4991 17.8087 12.5001C17.7677 12.501 17.7272 12.5101 17.6897 12.5267C17.6521 12.5433 17.6182 12.5671 17.5899 12.5968C17.5615 12.6265 17.5393 12.6615 17.5245 12.6997C17.5097 12.738 17.5025 12.7788 17.5035 12.8199C17.5045 12.8609 17.5135 12.9014 17.5301 12.9389C17.5467 12.9765 17.5705 13.0104 17.6002 13.0387L18.3263 13.731L17.852 14.1987C17.8216 14.2286 17.7976 14.2645 17.7816 14.304C17.7656 14.3435 17.7579 14.3859 17.7589 14.4286C17.7599 14.4712 17.7697 14.5132 17.7875 14.552C17.8054 14.5907 17.831 14.6254 17.8628 14.6538L18.8581 15.5452C18.8886 15.5727 18.9243 15.5939 18.963 15.6076C19.0018 15.6212 19.0428 15.6271 19.0838 15.6249C19.1248 15.6227 19.165 15.6125 19.2021 15.5947C19.2391 15.577 19.2723 15.5521 19.2998 15.5215C19.3272 15.4909 19.3483 15.4552 19.3619 15.4165C19.3756 15.3777 19.3814 15.3367 19.3792 15.2957C19.3769 15.2546 19.3666 15.2145 19.3488 15.1774C19.331 15.1404 19.3061 15.1072 19.2755 15.0798L18.5279 14.4103Z" fill="white"/>
<path d="M22.2737 15.5211C22.3291 15.5828 22.4067 15.6201 22.4895 15.6246C22.5723 15.6291 22.6535 15.6006 22.7152 15.5452L23.7105 14.6538C23.7423 14.6254 23.7679 14.5907 23.7858 14.552C23.8036 14.5132 23.8134 14.4712 23.8144 14.4286C23.8154 14.3859 23.8077 14.3435 23.7917 14.304C23.7757 14.2645 23.7517 14.2286 23.7213 14.1987L23.247 13.731L23.9731 13.0387C24.0028 13.0104 24.0266 12.9765 24.0432 12.9389C24.0598 12.9014 24.0688 12.8609 24.0698 12.8199C24.0708 12.7788 24.0636 12.738 24.0488 12.6997C24.034 12.6615 24.0118 12.6265 23.9834 12.5968C23.9551 12.5671 23.9212 12.5433 23.8836 12.5267C23.8461 12.5101 23.8056 12.501 23.7646 12.5001C23.7236 12.4991 23.6827 12.5063 23.6444 12.5211C23.6062 12.5359 23.5712 12.5581 23.5415 12.5865L22.5821 13.5012C22.5518 13.5301 22.5276 13.5647 22.511 13.6031C22.4943 13.6415 22.4856 13.6829 22.4852 13.7247C22.4849 13.7666 22.493 13.808 22.509 13.8467C22.5249 13.8854 22.5486 13.9204 22.5784 13.9498L23.0454 14.4103L22.2978 15.0798C22.2672 15.1072 22.2424 15.1404 22.2246 15.1774C22.2068 15.2144 22.1966 15.2545 22.1943 15.2955C22.1921 15.3365 22.1979 15.3775 22.2115 15.4162C22.2252 15.4549 22.2463 15.4906 22.2737 15.5211Z" fill="white"/>
<path d="M21.3357 12.6044L20.4629 13.5778C20.4112 13.6355 20.3827 13.7104 20.3831 13.7879C20.3835 13.8654 20.4127 13.94 20.465 13.9972L20.7916 14.3543L20.0901 15.0988C20.0619 15.1286 20.04 15.1638 20.0254 15.2022C20.0109 15.2406 20.004 15.2814 20.0053 15.3225C20.0065 15.3635 20.0158 15.4039 20.0327 15.4413C20.0495 15.4788 20.0736 15.5125 20.1035 15.5406C20.1334 15.5688 20.1685 15.5907 20.2069 15.6053C20.2453 15.6198 20.2862 15.6267 20.3272 15.6254C20.3682 15.6242 20.4086 15.6149 20.4461 15.598C20.4835 15.5812 20.5172 15.5571 20.5454 15.5272L21.4457 14.5717C21.4998 14.5143 21.5302 14.4386 21.5307 14.3598C21.5313 14.2809 21.5021 14.2048 21.4489 14.1466L21.1175 13.7842L21.8013 13.0216C21.8564 12.9598 21.8848 12.8787 21.8801 12.7961C21.8755 12.7134 21.8382 12.636 21.7766 12.5807C21.7149 12.5255 21.6339 12.497 21.5512 12.5014C21.4686 12.5059 21.391 12.5429 21.3357 12.6044Z" fill="white"/>
<path d="M18.8581 16.4864L17.8628 17.3778C17.831 17.4063 17.8054 17.4409 17.7875 17.4797C17.7697 17.5184 17.7599 17.5604 17.7589 17.603C17.7579 17.6457 17.7656 17.6881 17.7816 17.7276C17.7976 17.7672 17.8216 17.803 17.852 17.833L18.3263 18.3006L17.6002 18.9929C17.5402 19.0501 17.5054 19.1289 17.5035 19.2117C17.5016 19.2946 17.5326 19.3749 17.5899 19.4348C17.6471 19.4948 17.7258 19.5296 17.8087 19.5315C17.8916 19.5335 17.9718 19.5024 18.0318 19.4452L18.9912 18.5304C19.0215 18.5016 19.0457 18.4669 19.0623 18.4285C19.079 18.3901 19.0877 18.3488 19.0881 18.3069C19.0884 18.2651 19.0804 18.2236 19.0644 18.1849C19.0484 18.1462 19.0247 18.1112 18.9949 18.0818L18.5279 17.6213L19.2755 16.9518C19.3061 16.9244 19.331 16.8912 19.3488 16.8542C19.3666 16.8172 19.3769 16.777 19.3792 16.736C19.3814 16.695 19.3756 16.6539 19.3619 16.6151C19.3483 16.5764 19.3272 16.5407 19.2998 16.5101C19.2723 16.4795 19.2391 16.4547 19.2021 16.4369C19.165 16.4192 19.1248 16.4089 19.0838 16.4067C19.0428 16.4045 19.0017 16.4104 18.963 16.4241C18.9243 16.4378 18.8886 16.4589 18.8581 16.4864Z" fill="white"/>
<path d="M23.2469 18.3006L23.7213 17.833C23.7517 17.803 23.7756 17.7672 23.7916 17.7276C23.8076 17.6881 23.8154 17.6457 23.8143 17.603C23.8133 17.5604 23.8036 17.5184 23.7857 17.4797C23.7678 17.4409 23.7422 17.4063 23.7104 17.3778L22.7152 16.4864C22.6846 16.4589 22.649 16.4378 22.6102 16.4241C22.5715 16.4104 22.5304 16.4045 22.4894 16.4067C22.4484 16.4089 22.4082 16.4192 22.3712 16.4369C22.3341 16.4547 22.3009 16.4795 22.2735 16.5101C22.2461 16.5407 22.2249 16.5764 22.2113 16.6151C22.1977 16.6539 22.1918 16.695 22.1941 16.736C22.1963 16.777 22.2066 16.8172 22.2244 16.8542C22.2422 16.8912 22.2671 16.9244 22.2978 16.9518L23.0454 17.6213L22.5783 18.0818C22.5485 18.1112 22.5249 18.1462 22.5089 18.1849C22.4929 18.2236 22.4848 18.2651 22.4852 18.3069C22.4855 18.3488 22.4943 18.3901 22.5109 18.4285C22.5276 18.4669 22.5518 18.5016 22.582 18.5304L23.5414 19.4452C23.6014 19.5024 23.6817 19.5335 23.7645 19.5315C23.8474 19.5296 23.9261 19.4948 23.9834 19.4348C24.0406 19.3749 24.0717 19.2946 24.0697 19.2117C24.0678 19.1289 24.033 19.0501 23.9731 18.9929L23.2469 18.3006Z" fill="white"/>
<path d="M24.967 16.6326C24.9763 16.6729 24.9935 16.711 25.0176 16.7446C25.0417 16.7782 25.0722 16.8067 25.1075 16.8284C25.1427 16.8502 25.1818 16.8647 25.2227 16.8712C25.2636 16.8777 25.3053 16.876 25.3455 16.8662L26.6452 16.5505C26.6852 16.5409 26.7228 16.5234 26.756 16.4992C26.7892 16.475 26.8173 16.4445 26.8387 16.4095C26.8601 16.3744 26.8744 16.3354 26.8807 16.2948C26.8871 16.2543 26.8853 16.2128 26.8756 16.1729C26.8659 16.133 26.8484 16.0953 26.8242 16.0622C26.7999 16.029 26.7693 16.001 26.7342 15.9797C26.6991 15.9583 26.6601 15.9441 26.6195 15.9379C26.5789 15.9316 26.5375 15.9334 26.4976 15.9432L25.5055 16.1841L25.361 15.555C25.3427 15.4755 25.294 15.4063 25.2254 15.3622C25.1568 15.3181 25.0736 15.3025 24.9937 15.3188L24.0074 15.5199C23.9261 15.5365 23.8548 15.5847 23.8091 15.6538C23.7634 15.723 23.7471 15.8075 23.7636 15.8887C23.7802 15.9699 23.8284 16.0412 23.8975 16.0869C23.9667 16.1326 24.0512 16.149 24.1324 16.1324L24.8198 15.9922L24.967 16.6326Z" fill="white"/>
<path d="M17.8074 15.9002C17.817 15.8604 17.8188 15.8189 17.8124 15.7784C17.8061 15.7378 17.7918 15.6989 17.7705 15.6639C17.7491 15.6288 17.721 15.5983 17.6878 15.5741C17.6546 15.55 17.617 15.5325 17.5771 15.5229L16.7471 15.3218C16.7069 15.3121 16.6652 15.3104 16.6244 15.3169C16.5835 15.3234 16.5444 15.3379 16.5092 15.3596C16.474 15.3813 16.4434 15.4098 16.4193 15.4434C16.3952 15.477 16.378 15.5151 16.3687 15.5554L16.2241 16.1845L15.2321 15.9436C15.1922 15.9338 15.1507 15.932 15.1101 15.9382C15.0695 15.9445 15.0306 15.9587 14.9954 15.98C14.9603 16.0014 14.9298 16.0294 14.9055 16.0626C14.8812 16.0957 14.8638 16.1333 14.8541 16.1733C14.8444 16.2132 14.8426 16.2546 14.8489 16.2952C14.8553 16.3358 14.8695 16.3748 14.8909 16.4098C14.9123 16.4449 14.9404 16.4754 14.9737 16.4996C15.0069 16.5238 15.0445 16.5412 15.0844 16.5509L16.3841 16.8666C16.4243 16.8763 16.4661 16.878 16.5069 16.8715C16.5478 16.865 16.587 16.8505 16.6222 16.8288C16.6574 16.8071 16.6879 16.7786 16.7121 16.7449C16.7362 16.7113 16.7534 16.6733 16.7627 16.633L16.9074 16.0037L17.4298 16.1302C17.5103 16.1498 17.5954 16.1365 17.6662 16.0934C17.737 16.0503 17.7878 15.9808 17.8074 15.9002Z" fill="white"/>
<path d="M21.1175 18.2476L21.4489 17.8852C21.5021 17.827 21.5313 17.7509 21.5307 17.672C21.5302 17.5932 21.4998 17.5175 21.4457 17.4601L20.5454 16.5046C20.4886 16.4442 20.4101 16.4089 20.3272 16.4064C20.2443 16.4039 20.1639 16.4344 20.1035 16.4912C20.0431 16.548 20.0078 16.6265 20.0053 16.7094C20.0028 16.7922 20.0333 16.8727 20.0901 16.9331L20.7916 17.6775L20.465 18.0346C20.4127 18.0918 20.3835 18.1664 20.3831 18.2439C20.3827 18.3214 20.4112 18.3963 20.4629 18.454L21.3357 19.4274C21.391 19.4889 21.4686 19.526 21.5512 19.5304C21.6339 19.5348 21.7149 19.5063 21.7766 19.4511C21.8382 19.3959 21.8755 19.3184 21.8801 19.2358C21.8848 19.1531 21.8564 19.072 21.8013 19.0102L21.1175 18.2476Z" fill="white"/>
</g>
</g>
<defs>
<clipPath id="clip0_157_233">
<rect width="40" height="40" fill="white"/>
</clipPath>
<clipPath id="clip1_157_233">
<rect width="20" height="20" fill="white" transform="translate(10 10)"/>
</clipPath>
</defs>
</svg>
