<svg width="40" height="40" viewBox="0 0 40 40" fill="none" xmlns="http://www.w3.org/2000/svg">
<g clip-path="url(#clip0_157_323)">
<path d="M40 20C40 8.9543 31.0457 0 20 0C8.9543 0 0 8.9543 0 20C0 31.0457 8.9543 40 20 40C31.0457 40 40 31.0457 40 20Z" fill="#222222"/>
<path d="M19.125 22.1875C19.6094 21.7031 20.3906 21.7031 20.875 22.1875C20.9844 22.2969 21.1562 22.2969 21.2656 22.1875C21.375 22.0781 21.375 21.9062 21.2656 21.7969C20.5625 21.0938 19.4375 21.0938 18.7344 21.7969C18.625 21.9062 18.625 22.0781 18.7344 22.1875C18.8438 22.2969 19.0156 22.2969 19.125 22.1875Z" fill="white"/>
<path d="M19.3594 19.0782C19.2657 18.9688 19.0938 18.9532 18.9688 19.0469C18.7032 19.2813 18.3438 19.3438 18.0157 19.2032C17.8751 19.1407 17.7188 19.2188 17.6563 19.3594C17.5938 19.5 17.6719 19.6563 17.8126 19.7188C18.3282 19.9375 18.9219 19.8282 19.3282 19.4688C19.4532 19.3594 19.4688 19.1875 19.3594 19.0782Z" fill="white"/>
<path d="M22.1874 19.7031C22.328 19.6406 22.3905 19.4843 22.3437 19.3437C22.2812 19.2031 22.1249 19.1406 21.9843 19.1874C21.6561 19.3281 21.2968 19.2656 21.0312 19.0312C20.9218 18.9218 20.7499 18.9374 20.6405 19.0468C20.5312 19.1562 20.5468 19.3437 20.6718 19.4374C21.0624 19.8124 21.6562 19.9218 22.1874 19.7031Z" fill="white"/>
<path d="M21.8594 24.4216H21.5V23.7966C22.5625 23.3435 23.3125 22.3591 23.5 21.2185C24.5312 21.031 25.0469 19.906 24.5156 19.0154C24.9844 16.5154 23.3281 14.1091 20.8281 13.6404C18.3281 13.1716 15.9375 14.8279 15.4687 17.3279C15.3594 17.8904 15.3594 18.4529 15.4687 19.0154C14.9375 19.8748 15.4219 21.031 16.4844 21.2341C16.6719 22.3748 17.4219 23.3435 18.4844 23.8123V24.4373H18.125C16.625 24.4373 15.3594 25.5154 15.125 26.9998C15.0937 27.1716 15.2344 27.3123 15.3906 27.3123H24.5781C24.75 27.3123 24.875 27.156 24.8437 26.9998C24.6406 25.5154 23.3594 24.4216 21.8594 24.4216ZM23.5312 20.656V18.8904C24.4062 19.1716 24.4062 20.3904 23.5312 20.656ZM16.4531 20.656C15.5937 20.3904 15.5781 19.156 16.4531 18.8904V20.656ZM16.4687 18.0935V18.3279C16.25 18.3748 16.0937 18.4373 15.9531 18.531C15.9375 18.4216 15.9375 18.3123 15.9375 18.1873C15.9375 15.9529 17.75 14.1248 20 14.1248C22.25 14.1248 24.0625 15.9373 24.0625 18.1873C24.0625 18.2966 24.0625 18.4216 24.0469 18.531C23.8906 18.4216 23.7187 18.3591 23.5469 18.3279V18.0935C23.5469 17.6404 23.3906 17.1873 23.1094 16.8279C23.0469 16.7341 22.9687 16.656 22.875 16.5779C22.7812 16.4998 22.6562 16.4841 22.5469 16.531C22.2812 16.6873 21.9687 16.7654 21.6562 16.7654H17.625C17.5 16.7654 17.375 16.7341 17.2656 16.6873C17.1562 16.6404 17.0156 16.6716 16.9375 16.7654C16.6406 17.156 16.4687 17.6248 16.4687 18.0935ZM17.0156 20.781C17.0156 20.1091 17.0156 18.0935 17.0156 18.0935C17.0156 17.7966 17.0937 17.5154 17.2656 17.281C17.3906 17.3123 17.5156 17.3279 17.6406 17.3279H21.6719C22 17.3279 22.3437 17.2498 22.6406 17.1248C22.875 17.406 23 17.7498 23 18.1091V20.8279C23 21.8435 22.2969 22.9529 21.1406 23.3748C20.4062 23.656 19.6094 23.656 18.875 23.3748C17.7187 22.9529 17.0156 21.8435 17.0156 20.781ZM20.9531 23.9998V24.5623C20.3906 24.9841 19.6094 24.9841 19.0469 24.5623V23.9841C19.6719 24.156 20.3281 24.156 20.9531 23.9998ZM15.75 26.7498C16.0625 25.6873 17.0312 24.9529 18.1406 24.9685H18.6719C19.4531 25.5779 20.5469 25.5779 21.3281 24.9685H21.875C22.9844 24.9685 23.9531 25.6873 24.2656 26.7498H15.75Z" fill="white"/>
<path d="M14.6406 12.8125C14.4844 12.8125 14.375 12.9375 14.3594 13.0781V13.9687L13.1562 12.7656C13.0469 12.6562 12.875 12.6562 12.7656 12.7656C12.6562 12.875 12.6562 13.0469 12.7656 13.1562L13.9687 14.3594H13.0781C12.9219 14.3594 12.7969 14.4844 12.7969 14.6406C12.7969 14.7969 12.9219 14.9219 13.0781 14.9219H14.625C14.7812 14.9219 14.8906 14.7969 14.9062 14.6562V13.1094C14.9062 12.9375 14.7812 12.8125 14.6406 12.8125Z" fill="white"/>
<path d="M25.3594 14.9062H26.9062C27.0625 14.9062 27.1875 14.7812 27.1875 14.625C27.1875 14.4688 27.0625 14.3437 26.9062 14.3437H26.0156L27.2187 13.1406C27.3281 13.0313 27.3281 12.8594 27.2187 12.75C27.1094 12.6406 26.9375 12.6406 26.8281 12.75L25.625 13.9531V13.0625C25.625 12.9063 25.5 12.7812 25.3437 12.7812C25.1875 12.7812 25.0625 12.9063 25.0625 13.0625V14.6094C25.0625 14.7812 25.2188 14.9062 25.3594 14.9062Z" fill="white"/>
<path d="M14.6406 22.7344C14.25 22.7344 13.0937 22.7344 13.0937 22.7344C12.9375 22.7344 12.8125 22.8594 12.8125 23.0156C12.8125 23.1719 12.9375 23.2969 13.0937 23.2969H13.9844L12.7812 24.5C12.6719 24.6094 12.6719 24.7813 12.7812 24.8906C12.8906 25 13.0625 25 13.1719 24.8906L14.375 23.6875V24.5781C14.375 24.7344 14.5 24.8594 14.6562 24.8594C14.8125 24.8594 14.9375 24.7344 14.9375 24.5781C14.9375 24.5781 14.9375 23.4219 14.9375 23.0313C14.9375 22.875 14.7812 22.7344 14.6406 22.7344Z" fill="white"/>
<path d="M26.0312 23.2812H26.9062C27.0469 23.2812 27.1719 23.1875 27.2031 23.0469C27.2344 22.875 27.0938 22.7188 26.9219 22.7188H25.375C25.2344 22.7188 25.1094 22.8437 25.0938 23V24.5312C25.0938 24.6719 25.1875 24.7969 25.3281 24.8281C25.5 24.8594 25.6562 24.7187 25.6562 24.5469V23.6562L26.8438 24.8437C26.9531 24.9531 27.1563 24.9687 27.2656 24.8594C27.375 24.75 27.3594 24.5781 27.2656 24.4844L26.0312 23.2812Z" fill="white"/>
</g>
<defs>
<clipPath id="clip0_157_323">
<rect width="40" height="40" fill="white"/>
</clipPath>
</defs>
</svg>
